<svg height="85.3" viewBox="0 0 94.24 85.3" width="94.24" xmlns="http://www.w3.org/2000/svg"><path d="m81.86 13.49c-.36 0-.73 0-1.09 0-1.65-5.49-6.32-9.42-11.71-9.42a19.58 19.58 0 0 0 -2.14.15 14.37 14.37 0 0 0 -10.1-4.22c-8.14 0-14.76 6.51-16.17 15.67a13.78 13.78 0 0 0 -5.8 10.8c0 7.16 5.29 13 11.8 13h35.21c6.71 0 12.38-5.94 12.38-13s-5.67-12.98-12.38-12.98z" fill="#999"/><path d="m67.42 27.94c-.53 0-1 0-1.57.07a17.72 17.72 0 0 0 -16.79-12.09 28 28 0 0 0 -3.07.19 21.94 21.94 0 0 0 -14.49-5.39c-11.66 0-21.15 8.31-23.18 20-5.04 3.28-8.32 8.58-8.32 13.81a16.78 16.78 0 0 0 16.93 16.59h50.49c9.62 0 17.74-7.6 17.74-16.59s-8.16-16.59-17.74-16.59z" fill="#ddd"/><path d="m77.78 52.54a22.92 22.92 0 0 1 -3.91 5.74 16.35 16.35 0 0 0 7.48-7.51c3.63-7.65.09-16.47-7.92-20.32 6.37 4.42 8.38 13.6 4.35 22.09z" fill="#ccc" fill-rule="evenodd"/><g fill="#00bcd4"><path d="m21 72a3.47 3.47 0 0 1 -4.14 2.5 3.46 3.46 0 0 1 -2.33-4.23c1-3.7 8-17 8-17s-.44 14.54-1.53 18.73z"/><path d="m32.87 82.56a3.35 3.35 0 1 1 -6.47-1.73c1-3.7 8-17 8-17s-.4 14.5-1.53 18.73z"/><path d="m49.79 72a3.35 3.35 0 1 1 -6.46-1.73c1-3.7 8-17 8-17s-.4 14.54-1.54 18.73z"/><path d="m62.28 82.7a3.35 3.35 0 1 1 -6.46-1.7c1-3.69 8-17 8-17s-.4 14.46-1.54 18.7z"/></g></svg>