<svg height="100.41" viewBox="0 0 113.03 100.41" width="113.03" xmlns="http://www.w3.org/2000/svg"><path d="m95 51q-.8 0-1.59.06a18 18 0 0 0 -17-12.25 28.61 28.61 0 0 0 -3.1.19 22.26 22.26 0 0 0 -14.67-5.5c-11.82 0-21.44 8.43-23.5 20.29-5.1 3.26-8.43 8.69-8.43 14a17 17 0 0 0 17.16 16.8h51.13c9.75 0 18-7.7 18-16.81s-8.21-16.78-18-16.78z" fill="#ddd"/><path d="m68.09 46.38a28.43 28.43 0 0 0 1.08-7.11l5-2.53 5.22-2.66-5.68-1.36-5.43-1.3a27.65 27.65 0 0 0 -2.68-6.65l3-4.62 3.18-4.85-5.64 1.62-5.38 1.53a29 29 0 0 0 -5.76-4.45l.28-5.48.29-5.73-4.05 4.21-3.89 3.95a30 30 0 0 0 -7.25-1l-2.55-4.87-2.68-5.08-1.43 5.57-1.36 5.33a29.77 29.77 0 0 0 -6.82 2.67l-4.7-2.93-4.92-3.07 1.6 5.51 1.53 5.25a29.37 29.37 0 0 0 -4.55 5.67l-5.59-.23-5.86-.24 4.21 4 4 3.77a28.57 28.57 0 0 0 -1.08 7.11l-5 2.54-5.18 2.61 5.68 1.35 5.43 1.3a27.89 27.89 0 0 0 2.68 6.66l-3 4.61-3.21 4.85 5.64-1.61 5.38-1.54a29 29 0 0 0 5.73 4.42l-.28 5.47-.29 5.73 4.08-4.14 3.89-4a30 30 0 0 0 7.25 1l2.55 4.85 2.67 5.09 1.44-5.58 1.36-5.28a29.79 29.79 0 0 0 6.82-2.68l4.69 2.94 4.93 3.08-1.6-5.51-1.53-5.27a29.06 29.06 0 0 0 4.55-5.65l5.59.23 5.85.24-4.2-4z" fill="#f3712d"/><path d="m64.94 38.82a25.26 25.26 0 1 1 -25.26-25.57 25.42 25.42 0 0 1 25.26 25.57z" fill="#ffc82c"/><path d="m36.4 19.44a28.72 28.72 0 0 0 -20.3 17.89 25 25 0 0 1 18.51-21.79 24.37 24.37 0 0 1 23.28 6.69 29 29 0 0 0 -21.49-2.79z" fill="#ffd74b" fill-rule="evenodd"/><path d="m84.39 16.16a13.5 13.5 0 0 1 18.61 15.08l3.12 1.23-8.39 5.41-2.47-9.67 3 1.17a8.52 8.52 0 0 0 -16.41-3.95l-4.65-1.83a13.46 13.46 0 0 1 7.19-7.44z" fill="#41bff7"/><g fill="#00bcd4"><path d="m65.53 75.62c-.06 0-4.61 4.18-5.1 5.95a3.33 3.33 0 1 0 6.42 1.77c.49-1.77-1.27-7.71-1.32-7.72z"/><path d="m77.55 90.23c-.06 0-4.61 4.18-5.1 6a3.33 3.33 0 1 0 6.42 1.77c.49-1.82-1.27-7.75-1.32-7.77z"/><path d="m92.61 80.71c-.06 0-4.61 4.18-5.1 6a3.33 3.33 0 1 0 6.42 1.77c.49-1.82-1.27-7.76-1.32-7.77z"/></g></svg>