<svg height="94.1" viewBox="0 0 92.3 94.1" width="92.3" xmlns="http://www.w3.org/2000/svg"><path d="m83.9 42a21.23 21.23 0 0 0 .8-5.3l3.71-1.89 3.89-2-4.24-1-4-1a21.29 21.29 0 0 0 -2-5l2.26-3.44 2.37-3.61-4.2 1.2-4 1.15a22 22 0 0 0 -4.27-3.29l.2-4.08.22-4.28-3 3.1-2.9 2.94a22.54 22.54 0 0 0 -5.4-.74l-1.91-3.62-2-3.79-1.06 4.16-1 4a22.56 22.56 0 0 0 -5.09 2l-3.49-2.18-3.79-2.23 1.19 4.1 1.14 3.92a21.81 21.81 0 0 0 -3.33 4.21l-4.17-.17-4.4-.16 3.13 2.95 3 2.82a20.7 20.7 0 0 0 -.8 5.29l-3.76 1.87-3.89 2 4.24 1 4 1a21.12 21.12 0 0 0 2 5l-2.18 3.37-2.37 3.61 4.2-1.2 4-1.15a22 22 0 0 0 4.27 3.29l-.2 4.08-.22 4.27 3-3.09 2.9-3a22.41 22.41 0 0 0 5.4.75l1.9 3.61 2 3.79 1.07-4.15 1-4a22.46 22.46 0 0 0 5.08-2l3.5 2.18 3.67 2.29-1.19-4.1-1.08-3.83a21.81 21.81 0 0 0 3.39-4.21l4.17.17 4.36.18-3.13-2.95z" fill="#f3712d"/><path d="m81.55 36.38a18.83 18.83 0 1 1 -18.83-19.05 18.94 18.94 0 0 1 18.83 19.05z" fill="#ffc82c"/><path d="m60.28 21.94a21.44 21.44 0 0 0 -15.13 13.33 18.61 18.61 0 0 1 13.85-16.27 18.18 18.18 0 0 1 17.3 5 21.62 21.62 0 0 0 -16.02-2.06z" fill="#ffd74b" fill-rule="evenodd"/><path d="m72.38 35.27c-.57 0-1.13 0-1.69.07a19 19 0 0 0 -18-13 32.51 32.51 0 0 0 -3.28.2 23.63 23.63 0 0 0 -15.56-5.79c-12.52 0-22.71 8.93-24.89 21.5-5.44 3.47-8.96 9.21-8.96 14.83a18 18 0 0 0 18.17 17.8h54.21c10.32 0 19.05-8.15 19.05-17.8s-8.73-17.81-19.05-17.81z" fill="#ddd"/><path d="m84.34 61.54a23.08 23.08 0 0 1 -4 5.85 16.69 16.69 0 0 0 7.66-7.65c3.7-7.77.09-16.74-8-20.65 6.4 4.49 8.44 13.83 4.34 22.45z" fill="#ccc" fill-rule="evenodd"/><path d="m27.13 1.13a13.51 13.51 0 0 0 -18.63 15.09l-3.12 1.22 8.39 5.41 2.47-9.67-3 1.17a8.52 8.52 0 0 1 16.43-3.95l4.65-1.83a13.42 13.42 0 0 0 -7.19-7.44z" fill="#41bff7"/><g fill="#00bcd4"><path d="m23.1 63.63c-.06 0-5.66 5.14-6.27 7.32a4.1 4.1 0 1 0 7.9 2.18c.6-2.13-1.57-9.48-1.63-9.5z"/><path d="m33.63 81.6c-.07 0-5.67 5.14-6.27 7.32a4.1 4.1 0 1 0 7.9 2.17c.6-2.18-1.57-9.47-1.63-9.49z"/><path d="m50.32 69.88c-.07 0-5.67 5.14-6.27 7.32a4.1 4.1 0 1 0 7.95 2.18c.55-2.18-1.62-9.48-1.68-9.5z"/></g><path d="m64.12 64.21h13.26l-5.4 8.87h5.57l-11.42 14.74 2.26-8.79h-10.68z" fill="#ffe41f"/></svg>