<svg height="63.83" viewBox="0 0 92.3 63.83" width="92.3" xmlns="http://www.w3.org/2000/svg"><path d="m85.34 54.49a23.2 23.2 0 0 1 -4 5.84 16.62 16.62 0 0 0 7.66-7.64c3.7-7.77.09-16.74-8-20.66 6.4 4.5 8.44 13.83 4.34 22.46z" fill="#ccc" fill-rule="evenodd"/><path d="m72.38 28.22c-.57 0-1.13 0-1.69.06a19 19 0 0 0 -18-13 32.52 32.52 0 0 0 -3.29.2 23.63 23.63 0 0 0 -15.58-5.76c-12.52 0-22.71 8.93-24.89 21.49-5.41 3.46-8.93 9.2-8.93 14.79a18 18 0 0 0 18.17 17.83h54.21c10.32 0 19.05-8.15 19.05-17.81s-8.73-17.8-19.05-17.8zm9 32.11a23.2 23.2 0 0 0 4-5.84c4.1-8.63 2.06-18-4.41-22.46 8.09 3.97 11.7 12.89 8.03 20.66a16.62 16.62 0 0 1 -7.62 7.64z" fill="#ddd"/><path d="m52.67 15.31a19.31 19.31 0 0 1 4 .43 22.17 22.17 0 0 1 19.66.83 18.16 18.16 0 0 0 -17.35-5 17.91 17.91 0 0 0 -7.26 3.75z" fill="#ffd74b" fill-rule="evenodd"/><path d="m84.4 32.33a20.6 20.6 0 0 0 .3-3.06l3.71-1.89 3.89-2-4.24-1-4-1a21.12 21.12 0 0 0 -2-5l2.22-3.38 2.37-3.62-4.2 1.21-4 1.14a22.39 22.39 0 0 0 -4.27-3.29l.2-4.08.22-4.27-3 3.09-2.9 3a22 22 0 0 0 -5.4-.74l-1.96-3.65-1.99-3.79-1.06 4.15-1 4a22.1 22.1 0 0 0 -5.09 2l-3.51-2.22-3.69-2.29 1.19 4.11 1.14 3.91a1.8 1.8 0 0 1 -.19.2c.75.51 1.48 1 2.21 1.64a18.67 18.67 0 0 1 13.38-5.63 19 19 0 0 1 18.82 19.06c0 .52 0 1-.08 1.53" fill="#f3712d"/><path d="m62.73 9.87a18.67 18.67 0 0 0 -13.36 5.63c.81-.09 1.62-.15 2.31-.18a17.91 17.91 0 0 1 7.32-3.74 18.16 18.16 0 0 1 17.35 5 22.17 22.17 0 0 0 -19.66-.83 19 19 0 0 1 14 12.54c.56 0 1.12-.06 1.69-.06a19.62 19.62 0 0 1 9.09 2.24c0-.5.08-1 .08-1.53a19 19 0 0 0 -18.82-19.07z" fill="#ffc82c"/></svg>