<svg height="82.72" viewBox="0 0 109.14 82.72" width="109.14" xmlns="http://www.w3.org/2000/svg"><path d="m75.26 19.23c-.58 0-1.17 0-1.75.07a19.78 19.78 0 0 0 -18.75-13.49 32.79 32.79 0 0 0 -3.42.19 24.52 24.52 0 0 0 -16.17-6c-13 0-23.62 9.28-25.88 22.35-5.63 3.59-9.29 9.56-9.29 15.4a18.73 18.73 0 0 0 18.9 18.51h56.36c10.74 0 19.81-8.47 19.81-18.51s-9.07-18.52-19.81-18.52z" fill="#999"/><path d="m87.5 46.13a24.27 24.27 0 0 1 -4.13 6.07 17.27 17.27 0 0 0 7.9-7.94c3.84-8.08.09-17.41-8.36-21.48 6.72 4.67 8.85 14.38 4.59 23.35z" fill="#777" fill-rule="evenodd"/><g fill="#eee"><path d="m88.74 52.27c-.6 0-1.21 0-1.82-.06-8.24-.53-15.32-5-21.57-8.86l-1.06-.66c-8.51-5.31-21.61-7.09-30.23 1.54a3 3 0 0 1 -4.24-4.23c7.67-7.67 22.72-11.69 37.64-2.4l1.07.67c5.92 3.7 12 7.53 18.78 8a21.83 21.83 0 0 0 16.71-6 3 3 0 1 1 4.24 4.24 27.78 27.78 0 0 1 -19.52 7.76z" opacity=".6"/><path d="m88.74 66.89c-.6 0-1.21 0-1.82-.06-8.24-.53-15.32-4.95-21.57-8.83l-1.06-.66c-8.51-5.34-21.61-7.12-30.23 1.51a3 3 0 1 1 -4.24-4.24c7.67-7.67 22.72-11.69 37.64-2.4l1.07.67c5.92 3.7 12 7.53 18.78 8a21.83 21.83 0 0 0 16.71-6 3 3 0 0 1 4.24 4.24 27.78 27.78 0 0 1 -19.52 7.77z" opacity=".75"/><path d="m88.74 81.51c-.6 0-1.21 0-1.82-.06-8.24-.53-15.32-5-21.57-8.86l-1.06-.66c-8.51-5.31-21.61-7.09-30.23 1.54a3 3 0 0 1 -4.24-4.24c7.66-7.67 22.72-11.69 37.64-2.4l1.08.67c5.92 3.71 12 7.53 18.77 8a21.83 21.83 0 0 0 16.71-6 3 3 0 1 1 4.24 4.24 27.78 27.78 0 0 1 -19.52 7.77z" opacity=".9"/><circle cx="39.56" cy="42.26" opacity=".75" r="2"/><circle cx="52.57" cy="74.03" opacity=".75" r="2"/><circle cx="79.22" cy="58.04" opacity=".75" r="2"/><circle cx="101.8" cy="71.03" opacity=".75" r="2"/><circle cx="94.12" cy="36.19" opacity=".75" r="2"/></g><path d="m90.37 63.13-4.2 2.33-1.51-.87 1.53-.76-1-2-2.86 1.41-1.87-1.07a4.15 4.15 0 0 0 .12-1 4.09 4.09 0 0 0 -.12-1l1.87-1.08 2.86 1.41 1-2-1.53-.76 1.51-.87 4.2 2.34 1.08-1.95-3-1.69 2.47-1.42-1.11-1.93-2.51 1.45.06-3.48h-2.22l-.08 4.81-1.51.88.11-1.71-2.22-.17-.21 3.18-1.87 1.08a4.13 4.13 0 0 0 -1.72-1v-2.16l2.65-1.77-1.23-1.86-1.42 1v-1.79l4.12-2.47-1.15-1.91-3 1.78v-2.85h-2.2v2.85l-3-1.78-1.14 1.91 4.12 2.47v1.74l-1.42-1-1.24 1.86 2.66 1.77v2.15a4.17 4.17 0 0 0 -1.73 1l-1.87-1.08-.18-3.12-2.22.14.11 1.71-1.5-.85-.08-4.8h-2.23l.06 3.48-2.47-1.43-1.12 1.93 2.48 1.42-3 1.69 1.08 1.95 4.21-2.34 1.5.87-1.53.76 1 2 2.8-1.43 1.87 1.08a4.09 4.09 0 0 0 -.13 1 4.15 4.15 0 0 0 .13 1l-1.87 1.07-2.86-1.41-1 2 1.53.76-1.5.87-4.21-2.33-1.08 1.94 3 1.69-2.48 1.43 1.12 1.92 2.47-1.42-.06 3.47h2.23l.14-4.78 1.51-.87-.11 1.7 2.22.15.2-3.19 1.87-1.08a4.07 4.07 0 0 0 1.73 1v2.16l-2.67 1.74 1.25 1.88 1.42-.95v1.74l-4.12 2.48 1.14 1.91 3-1.79v2.85h2.23v-2.85l3 1.79 1.15-1.91-4.12-2.48v-1.74l1.42.95 1.17-1.88-2.65-1.77v-2.13a4 4 0 0 0 1.72-1l1.87 1.08.21 3.19 2.22-.15-.11-1.7 1.51.87.08 4.81h2.22l-.06-3.47 2.48 1.42 1.11-1.92-2.47-1.43 3-1.69zm-13.85-.13a1.86 1.86 0 1 1 1.86-1.85 1.85 1.85 0 0 1 -1.86 1.85z" fill="#c9e3f7"/><path d="m90.37 63.13-4.2 2.33-1.51-.87 1.53-.76-1-2-2.86 1.41-1.87-1.07a4.15 4.15 0 0 0 .12-1 4.09 4.09 0 0 0 -.12-1l1.87-1.08 2.86 1.41 1-2-1.53-.76 1.51-.87 4.2 2.34 1.08-1.95-3-1.69 2.47-1.42-1.11-1.93-2.51 1.45.06-3.48h-2.22l-.08 4.81-1.51.88.11-1.71-2.22-.17-.21 3.18-1.87 1.08a4.13 4.13 0 0 0 -1.72-1v-2.16l2.65-1.77-1.23-1.86-1.42 1v-1.79l4.12-2.47-1.15-1.91-3 1.78v-2.85h-1.09v14.09a1.86 1.86 0 1 1 0 3.71v14.09h1.12v-2.85l3 1.79 1.15-1.91-4.12-2.48v-1.74l1.42.95 1.2-1.88-2.65-1.77v-2.13a4 4 0 0 0 1.72-1l1.87 1.08.21 3.19 2.22-.15-.11-1.7 1.51.87.08 4.81h2.22l-.06-3.47 2.48 1.42 1.11-1.92-2.47-1.43 3-1.69z" fill="#91cdf2"/><path d="m16.35 67.92a3.87 3.87 0 0 1 -4.62 2.79 3.87 3.87 0 0 1 -2.6-4.71c1.11-4.13 8.95-18.94 8.95-18.94s-.46 16.13-1.73 20.86z" fill="#00bcd4"/><path d="m26.64 79.66a3.85 3.85 0 0 1 -4.64 2.79 3.87 3.87 0 0 1 -2.61-4.72c1.11-4.13 9-18.94 9-18.94s-.48 16.14-1.75 20.87z" fill="#00bcd4"/><path d="m42.54 67.92a3.74 3.74 0 1 1 -7.22-1.92c1.11-4.13 9-18.94 9-18.94s-.51 16.13-1.78 20.86z" fill="#00bcd4"/><path d="m53.49 79.81a3.74 3.74 0 1 1 -7.22-1.93c1.1-4.13 8.94-18.94 8.94-18.94s-.46 16.15-1.72 20.87z" fill="#00bcd4"/></svg>