<svg height="106.44" viewBox="0 0 108.06 106.44" width="108.06" xmlns="http://www.w3.org/2000/svg"><path d="m19.82 75.29c0 8.31 7.52 15.33 16.41 15.33h46.7a15.51 15.51 0 0 0 15.65-15.33c0-4.84-3-9.79-7.7-12.76-1.88-10.82-10.65-18.53-21.43-18.53a20.33 20.33 0 0 0 -13.4 5 28.31 28.31 0 0 0 -2.84-.17 16.39 16.39 0 0 0 -15.53 11.17c-.48 0-1-.06-1.45-.06-8.89.06-16.41 7.06-16.41 15.35z" fill="#ddd"/><path d="m76.91 84.22h11.04l-4.49 7.39h4.63l-9.51 12.27 1.89-7.31h-8.9z" fill="#ffe41f"/><path d="m92.81 20.52a13.5 13.5 0 0 1 12.7 20.33l2.55 2.15-9.69 2.39.81-9.95 2.44 2.08a8.52 8.52 0 0 0 -14.23-9.08l-3.8-3.25a13.42 13.42 0 0 1 9.22-4.67z" fill="#41bff7"/><path d="m44.4 43.39a31 31 0 0 1 -44.22-.17l-.18-.22c2.5 19.16 18.69 34 38.25 34.09a38.35 38.35 0 0 0 38.3-38.81 39.2 39.2 0 0 0 -31.02-38.28 32 32 0 0 1 -1.13 43.39z" fill="#f9a607" fill-rule="evenodd"/><path d="m67 52a37.59 37.59 0 0 1 -5.73 9.48 25.66 25.66 0 0 0 11-12.39 26.45 26.45 0 0 0 -11.7-33.48c9.36 7.29 12.31 22.39 6.43 36.39z" fill="#ffd74b" fill-rule="evenodd"/><g fill="#00bcd4"><path d="m33.63 81.66c-.06 0-4.61 4.18-5.1 6a3.33 3.33 0 1 0 6.47 1.72c.44-1.77-1.32-7.71-1.37-7.72z"/><path d="m45.65 96.27c-.06 0-4.61 4.18-5.1 6a3.33 3.33 0 0 0 6.45 1.73c.46-1.78-1.3-7.71-1.35-7.73z"/><path d="m60.71 86.74c-.06 0-4.61 4.18-5.1 6a3.33 3.33 0 0 0 6.39 1.73c.52-1.78-1.24-7.71-1.29-7.73z"/></g></svg>