<svg height="100.87" viewBox="0 0 93.26 100.87" width="93.26" xmlns="http://www.w3.org/2000/svg"><path d="m56 39.44a28.16 28.16 0 0 1 -40.19-.16l-.16-.17a35.43 35.43 0 0 0 34.76 31 34.86 34.86 0 0 0 34.78-35.29 35.64 35.64 0 0 0 -28.19-34.82 29.06 29.06 0 0 1 -1 39.44z" fill="#f9a607" fill-rule="evenodd"/><path d="m76.47 47.29a34.73 34.73 0 0 1 -5.21 8.62 23.47 23.47 0 0 0 10-11.27 24 24 0 0 0 -10.59-30.46c8.5 6.63 11.18 20.39 5.8 33.11z" fill="#ffd74b" fill-rule="evenodd"/><path d="m74.19 34.6q-.84 0-1.68.06a19 19 0 0 0 -18-13 32.52 32.52 0 0 0 -3.29.2 23.65 23.65 0 0 0 -15.57-5.79c-12.53 0-22.72 8.93-24.9 21.5-5.46 3.48-8.98 9.23-8.98 14.85a18 18 0 0 0 18.23 17.81h54.19c10.34 0 19.07-8.16 19.07-17.81s-8.73-17.82-19.07-17.82z" fill="#ddd"/><path d="m85.47 60.14a23.29 23.29 0 0 1 -4 5.85 16.73 16.73 0 0 0 7.61-7.65c3.69-7.78.09-16.75-8.06-20.67 6.51 4.49 8.55 13.84 4.45 22.47z" fill="#ccc" fill-rule="evenodd"/><g fill="#00bcd4"><path d="m24.31 70.4c-.06 0-5.67 5.14-6.27 7.32a4.1 4.1 0 1 0 7.9 2.18c.6-2.18-1.57-9.48-1.63-9.5z"/><path d="m34.84 88.37c-.07 0-5.67 5.14-6.27 7.32a4.1 4.1 0 0 0 7.9 2.18c.6-2.19-1.57-9.48-1.63-9.5z"/><path d="m51.53 76.65c-.07 0-5.67 5.14-6.27 7.32a4.1 4.1 0 1 0 7.9 2.18c.6-2.15-1.57-9.48-1.63-9.5z"/></g><path d="m65.33 70.98h13.26l-5.4 8.87h5.57l-11.42 14.74 2.26-8.78h-10.68z" fill="#ffe41f"/><path d="m18 10.87a12.62 12.62 0 0 0 -15.27 16.36l-2.73 1.53 8.46 3.93 1-9.27-2.57 1.47a8.05 8.05 0 0 1 .07-4 8 8 0 0 1 14.6-1.78l4.07-2.29a12.53 12.53 0 0 0 -7.63-5.95z" fill="#41bff7"/></svg>