<svg height="90.3" viewBox="0 0 105.54 90.3" width="105.54" xmlns="http://www.w3.org/2000/svg"><path d="m40.3 39.39a28.13 28.13 0 0 1 -40.14-.16l-.16-.17a35.38 35.38 0 0 0 34.72 30.94 34.82 34.82 0 0 0 34.76-35.23 35.58 35.58 0 0 0 -28.16-34.77 29 29 0 0 1 -1.02 39.39z" fill="#f9a607" fill-rule="evenodd"/><path d="m60.77 47.23a34.57 34.57 0 0 1 -5.2 8.6 23.25 23.25 0 0 0 10-11.25 24 24 0 0 0 -10.57-30.41c8.47 6.61 11.15 20.36 5.77 33.06z" fill="#ffd74b" fill-rule="evenodd"/><path d="m86.73 55.14c-.56 0-1.11 0-1.66.06a18.8 18.8 0 0 0 -17.81-12.81 32 32 0 0 0 -3.25.2 23.25 23.25 0 0 0 -15.36-5.72c-12.36 0-22.42 8.82-24.57 21.22-5.34 3.41-8.82 9.09-8.82 14.63a17.79 17.79 0 0 0 17.94 17.58h53.53c10.19 0 18.81-8 18.81-17.58s-8.62-17.58-18.81-17.58z" fill="#ddd"/><path d="m99.53 81.08a22.94 22.94 0 0 1 -3.92 5.77 16.4 16.4 0 0 0 7.51-7.55c3.64-7.67.08-16.53-8-20.39 6.44 4.43 8.46 13.65 4.41 22.17z" fill="#ccc" fill-rule="evenodd"/></svg>