<svg height="96.81" viewBox="0 0 110.83 96.81" width="110.83" xmlns="http://www.w3.org/2000/svg"><path d="m53.75 39.11a27.92 27.92 0 0 1 -39.85-.11l-.16-.17a35.13 35.13 0 0 0 34.47 30.68 34.56 34.56 0 0 0 34.52-35 35.33 35.33 0 0 0 -27.96-34.51 28.81 28.81 0 0 1 -1.02 39.11z" fill="#f9a607" fill-rule="evenodd"/><path d="m74.09 46.9a34.41 34.41 0 0 1 -5.17 8.54 23.23 23.23 0 0 0 9.9-11.17 23.84 23.84 0 0 0 -10.49-30.2c8.43 6.57 11.1 20.22 5.76 32.83z" fill="#ffd74b" fill-rule="evenodd"/><path d="m71.83 34.31c-.56 0-1.12 0-1.67.07a18.87 18.87 0 0 0 -17.89-12.88 32.17 32.17 0 0 0 -3.27.2 23.42 23.42 0 0 0 -15.44-5.7c-12.42 0-22.56 8.81-24.69 21.28-5.37 3.43-8.87 9.13-8.87 14.72a17.87 17.87 0 0 0 18 17.65h53.8c10.25 0 18.91-8.09 18.91-17.67s-8.63-17.67-18.88-17.67z" fill="#ddd"/><path d="m83 59.64a23 23 0 0 1 -3.94 5.8 16.53 16.53 0 0 0 7.54-7.58c3.66-7.71.09-16.61-8-20.5 6.46 4.46 8.48 13.72 4.4 22.28z" fill="#ccc" fill-rule="evenodd"/><path d="m27.38 64.35c-.1 0-8.76 8-9.68 11.32a6.33 6.33 0 1 0 12.2 3.33c.93-3.34-2.42-14.62-2.52-14.65z" fill="#00bcd4"/><circle cx="19.63" cy="93.08" fill="#00bcd4" r="3.72"/><g fill="#eee"><path d="m90.43 67.47c-.61 0-1.21 0-1.82-.06-8.24-.53-15.33-4.95-21.57-8.86l-1.04-.66c-8.51-5.31-21.6-7.09-30.23 1.54a3 3 0 0 1 -4.24-4.25c7.67-7.66 22.72-11.68 37.65-2.39l1.07.67c5.92 3.7 12 7.53 18.77 8a21.85 21.85 0 0 0 16.72-6 3 3 0 0 1 4.26 4.19 27.78 27.78 0 0 1 -19.57 7.82z" opacity=".6"/><path d="m90.43 82.09c-.61 0-1.21 0-1.82-.06-8.24-.53-15.33-5-21.57-8.86l-1.04-.66c-8.51-5.31-21.6-7.09-30.23 1.54a3 3 0 0 1 -4.27-4.25c7.67-7.67 22.72-11.68 37.65-2.39l1.07.67c5.92 3.7 12 7.53 18.77 8a21.85 21.85 0 0 0 16.72-6 3 3 0 0 1 4.29 4.19 27.78 27.78 0 0 1 -19.57 7.82z" opacity=".75"/><path d="m90.42 96.71c-.6 0-1.21 0-1.81-.06-8.24-.53-15.32-5-21.57-8.86l-1.04-.66c-8.51-5.31-21.6-7.09-30.23 1.54a3 3 0 1 1 -4.24-4.24c7.67-7.67 22.72-11.69 37.65-2.4l1.07.67c5.92 3.71 12 7.53 18.77 8a21.85 21.85 0 0 0 16.72-6 3 3 0 0 1 4.26 4.19 27.79 27.79 0 0 1 -19.58 7.82z" opacity=".9"/><circle cx="41.25" cy="57.46" opacity=".75" r="2"/><circle cx="54.26" cy="89.23" opacity=".75" r="2"/><circle cx="80.9" cy="73.24" opacity=".75" r="2"/><circle cx="103.48" cy="86.23" opacity=".75" r="2"/><circle cx="95.81" cy="51.39" opacity=".75" r="2"/></g><path d="m57.43 64.41h13.79l-5.61 9.22h5.79l-11.88 15.33 2.36-9.13h-11.11z" fill="#ffe41f"/></svg>