<svg height="80.77" viewBox="0 0 110.44 80.77" width="110.44" xmlns="http://www.w3.org/2000/svg"><path d="m71.86 18.36c-.56 0-1.11 0-1.67.07a18.87 18.87 0 0 0 -17.9-12.88 29.63 29.63 0 0 0 -3.27.2 23.37 23.37 0 0 0 -15.44-5.75c-12.43 0-22.58 8.86-24.71 21.34-5.37 3.43-8.87 9.13-8.87 14.71a17.88 17.88 0 0 0 18 17.67h53.86c10.26 0 18.92-8.09 18.92-17.67s-8.66-17.69-18.92-17.69z" fill="#999"/><path d="m83.55 44.05a23.36 23.36 0 0 1 -3.94 5.8 16.55 16.55 0 0 0 7.54-7.59c3.67-7.72.09-16.62-8-20.51 6.44 4.46 8.47 13.73 4.4 22.3z" fill="#777" fill-rule="evenodd"/><path d="m27.33 48.31c-.1 0-8.76 7.95-9.69 11.32a6.33 6.33 0 0 0 12.21 3.37c.93-3.38-2.42-14.66-2.52-14.69z" fill="#00bcd4"/><circle cx="19.57" cy="77.04" fill="#00bcd4" r="3.72"/><g fill="#eee"><path d="m90 51.46c-.6 0-1.21 0-1.82-.05-8.24-.53-15.32-5-21.57-8.87l-1.06-.66c-8.48-5.3-21.55-7.08-30.19 1.54a3 3 0 0 1 -4.25-4.24c7.67-7.67 22.73-11.69 37.65-2.39l1.07.67c5.92 3.7 12 7.53 18.78 8a21.84 21.84 0 0 0 16.71-6 3 3 0 0 1 4.24 4.25 27.81 27.81 0 0 1 -19.56 7.75z" opacity=".6"/><path d="m90 66.08c-.6 0-1.21 0-1.82 0-8.24-.53-15.32-5-21.57-8.87l-1.06-.66c-8.48-5.35-21.55-7.13-30.19 1.45a3 3 0 1 1 -4.25-4.24c7.67-7.67 22.73-11.69 37.65-2.39l1.07.67c5.92 3.7 12 7.53 18.78 8a21.89 21.89 0 0 0 16.71-6 3 3 0 0 1 4.24 4.25 27.81 27.81 0 0 1 -19.56 7.79z" opacity=".75"/><path d="m90 80.7c-.61 0-1.21 0-1.82 0-8.24-.53-15.32-5-21.57-8.86l-1.06-.67c-8.48-5.35-21.55-7.17-30.19 1.49a3 3 0 0 1 -4.25-4.24c7.67-7.67 22.72-11.69 37.65-2.42l1.07.67c5.93 3.7 12 7.53 18.78 8a21.85 21.85 0 0 0 16.71-6 3 3 0 0 1 4.24 4.25 27.81 27.81 0 0 1 -19.56 7.78z" opacity=".9"/><circle cx="40.86" cy="41.45" opacity=".75" r="2"/><circle cx="53.87" cy="73.22" opacity=".75" r="2"/><circle cx="80.52" cy="57.23" opacity=".75" r="2"/><circle cx="103.1" cy="70.22" opacity=".75" r="2"/><circle cx="95.42" cy="35.38" opacity=".75" r="2"/></g><path d="m58.48 49.85h13.79l-5.61 9.22h5.79l-11.87 15.33 2.35-9.13h-11.11z" fill="#ffe41f"/></svg>