<svg height="67.74" viewBox="0 0 63.42 67.74" width="63.42" xmlns="http://www.w3.org/2000/svg"><path d="m61.12 38-8.92 5-3.2-1.88 3.26-1.61-2.1-4.23-6.08 3-4-2.29a8.77 8.77 0 0 0 0-4.24l4-2.29 6.08 3 2.1-4.23-3.26-1.61 3.21-1.85 8.92 5 2.3-4.14-6.43-3.63 5.25-3-2.36-4.09-5.25 3 .12-7.37-4.76-.07-.18 10.21-3.2 1.85.23-3.62-4.71-.31-.44 6.77-4 2.29a8.51 8.51 0 0 0 -3.67-2.12v-4.54l5.64-3.76-2.62-3.94-3 2v-3.7l8.76-5.26-2.41-4.07-6.33 3.8v-6.07h-4.72v6.07l-6.35-3.8-2.41 4.05 8.76 5.26v3.7l-3-2-2.64 3.92 5.64 3.8v4.58a8.51 8.51 0 0 0 -3.67 2.12l-4-2.29-.44-6.77-4.72.31.24 3.62-3.21-1.85-.17-10.21-4.72.08.12 7.37-5.25-3-2.34 4.04 5.26 3-6.45 3.59 2.29 4.14 8.93-5 3.21 1.85-3.26 1.61 2.1 4.23 6.07-3 4 2.29a8.46 8.46 0 0 0 0 4.24l-4 2.29-6.07-3-2.1 4.23 3.26 1.61-3.21 1.92-8.93-5-2.29 4.15 6.45 3.58-5.26 3 2.37 4.09 5.25-3-.12 7.37 4.72.08.17-10.21 3.21-1.85-.24 3.62 4.72.31.44-6.77 4-2.29a8.51 8.51 0 0 0 3.67 2.12v4.58l-5.64 3.76 2.62 3.94 3-2v3.7l-8.76 5.26 2.43 4 6.33-3.79v6.06h4.72v-6.03l6.33 3.79 2.43-4-8.76-5.26v-3.7l3 2 2.62-3.94-5.64-3.76v-4.6a8.63 8.63 0 0 0 3.67-2.13l4 2.29.44 6.77 4.71-.31-.23-3.62 3.2 1.85.15 10.21 4.72-.08-.12-7.37 5.25 3 2.36-4.09-5.25-3 6.45-3.58zm-29.41-.2a3.94 3.94 0 1 1 3.94-3.94 3.95 3.95 0 0 1 -3.94 3.95z" fill="#c9e3f7"/><path d="m61.12 38-8.92 5-3.2-1.88 3.26-1.61-2.1-4.23-6.08 3-4-2.29a8.77 8.77 0 0 0 0-4.24l4-2.29 6.08 3 2.1-4.23-3.26-1.61 3.21-1.85 8.92 5 2.3-4.14-6.43-3.63 5.25-3-2.36-4.09-5.25 3 .12-7.37-4.76-.07-.18 10.21-3.2 1.85.23-3.62-4.71-.31-.44 6.77-4 2.29a8.51 8.51 0 0 0 -3.67-2.12v-4.54l5.64-3.76-2.62-3.94-3 2v-3.7l8.76-5.26-2.41-4.07-6.33 3.8v-6.07h-2.36v29.93a3.94 3.94 0 0 1 0 7.88v29.93h2.36v-6.06l6.33 3.79 2.43-4-8.76-5.26v-3.7l3 2 2.62-3.94-5.64-3.76v-4.6a8.63 8.63 0 0 0 3.67-2.13l4 2.29.44 6.77 4.71-.31-.23-3.62 3.2 1.85.16 10.21 4.72-.08-.12-7.37 5.25 3 2.36-4.09-5.25-3 6.45-3.58z" fill="#91cdf2"/></svg>