<svg height="78.08" viewBox="0 0 93.75 78.08" width="93.75" xmlns="http://www.w3.org/2000/svg"><path d="m74.21 19c-.57 0-1.15 0-1.72.06a19.51 19.51 0 0 0 -18.49-13.33c-.77 0-2.09.06-3.37.2a24.2 24.2 0 0 0 -15.95-5.93c-12.84 0-23.29 9.15-25.52 22-5.55 3.58-9.16 9.47-9.16 15.22a18.47 18.47 0 0 0 18.63 18.26h55.58c10.59 0 19.54-8.36 19.54-18.26s-8.95-18.22-19.54-18.22z" fill="#ddd"/><path d="m85.77 45.14a23.79 23.79 0 0 1 -4.07 6 17.1 17.1 0 0 0 7.79-7.84c3.79-8 .09-17.16-8.25-21.18 6.64 4.6 8.76 14.17 4.53 23.02z" fill="#ccc" fill-rule="evenodd"/><g fill="#00bcd4"><path d="m29.17 47.61c-.06 0-5.66 5.14-6.26 7.32a4.09 4.09 0 1 0 7.89 2.18c.61-2.18-1.56-9.48-1.63-9.5z"/><path d="m44 65.58c-.06 0-5.66 5.14-6.27 7.32a4.1 4.1 0 1 0 7.9 2.18c.55-2.19-1.63-9.48-1.63-9.5z"/><path d="m62.46 53.86c-.06 0-5.66 5.14-6.26 7.32a4.09 4.09 0 1 0 7.89 2.18c.61-2.18-1.56-9.48-1.63-9.5z"/></g></svg>