<svg height="78.76" viewBox="0 0 93.83 78.76" width="93.83" xmlns="http://www.w3.org/2000/svg"><path d="m81.46 13.49c-.37 0-.73 0-1.1 0-1.65-5.49-6.31-9.42-11.71-9.42a19.42 19.42 0 0 0 -2.13.15 14.39 14.39 0 0 0 -10.11-4.22c-8.13 0-14.75 6.51-16.17 15.67a13.78 13.78 0 0 0 -5.8 10.8c0 7.16 5.3 13 11.8 13h35.22c6.71 0 12.37-5.94 12.37-13s-5.66-12.98-12.37-12.98z" fill="#999"/><path d="m67.05 27.94q-.78 0-1.56.06a17.61 17.61 0 0 0 -16.7-12 30.39 30.39 0 0 0 -3 .19 21.81 21.81 0 0 0 -14.41-5.36c-11.6 0-21 8.27-23 19.91-5.12 3.18-8.38 8.5-8.38 13.7a16.69 16.69 0 0 0 16.83 16.5h50.22c9.57 0 17.65-7.56 17.65-16.5s-8.08-16.5-17.65-16.5z" fill="#ddd"/><path d="m78.14 52.28a21.49 21.49 0 0 1 -3.68 5.42 15.48 15.48 0 0 0 7-7.08c3.42-7.2.09-15.51-7.45-19.14 5.99 4.16 7.93 12.81 4.13 20.8z" fill="#ccc" fill-rule="evenodd"/><g fill="#00bcd4"><path d="m24.87 50.53c-.06 0-5.25 4.76-5.8 6.78a3.79 3.79 0 1 0 7.31 2c.56-2-1.45-8.76-1.51-8.78z"/><path d="m38.56 67.18c-.06 0-5.25 4.76-5.8 6.78a3.79 3.79 0 1 0 7.31 2c.56-1.96-1.45-8.77-1.51-8.78z"/><path d="m55.71 56.32c-.05 0-5.24 4.76-5.8 6.79a3.79 3.79 0 0 0 7.31 2c.56-2.01-1.45-8.77-1.51-8.79z"/></g></svg>