<svg height="92.86" viewBox="0 0 94.92 92.86" width="94.92" xmlns="http://www.w3.org/2000/svg"><path d="m43.54 23.25a34.38 34.38 0 0 0 -24.29 21.4c1.34-12.32 9.86-23 22.15-26.06a29.15 29.15 0 0 1 27.84 8 34.63 34.63 0 0 0 -25.7-3.34z" fill="#ffd74b" fill-rule="evenodd"/><path d="m81.44 55.48a33.86 33.86 0 0 0 1.29-8.48l6-3 6.24-3.18-6.8-1.62-6.49-1.55a33.41 33.41 0 0 0 -3.2-8l3.62-5.53 3.81-5.8-6.75 1.93-6.44 1.84a34.85 34.85 0 0 0 -6.85-5.28l.33-6.55.35-6.85-4.88 5-4.67 4.67a36.05 36.05 0 0 0 -8.67-1.2l-3-5.8-3.28-6.08-1.71 6.67-1.64 6.33a35.55 35.55 0 0 0 -8.16 3.21l-5.61-3.51-5.93-3.65 2 6.59 1.83 6.29a34.61 34.61 0 0 0 -5.45 6.75l-6.69-.27-7-.29 5 4.74 4.8 4.52a33.86 33.86 0 0 0 -1.29 8.5l-5.95 3-6.25 3.22 6.8 1.62 6.48 1.55a33.85 33.85 0 0 0 3.21 8l-3.62 5.53-3.8 5.8 6.74-1.94 6.44-1.84a34.9 34.9 0 0 0 6.85 5.29l-.33 6.55-.35 6.85 4.88-5 4.7-4.73a35.55 35.55 0 0 0 8.62 1.22l3.05 5.81 3.2 6.08 1.72-6.67 1.63-6.36a35.75 35.75 0 0 0 8.15-3.21l5.63 3.48 5.89 3.68-1.89-6.59-1.83-6.29a34.91 34.91 0 0 0 5.45-6.75l6.69.27 7 .29-5-4.74zm-33.98 21.52a30.58 30.58 0 1 1 30.22-30.57 30.39 30.39 0 0 1 -30.22 30.57z" fill="#f3712d"/><path d="m47.46 15.85a30.58 30.58 0 1 0 30.22 30.58 30.39 30.39 0 0 0 -30.22-30.58zm-3.92 7.4a34.38 34.38 0 0 0 -24.29 21.4c1.34-12.32 9.86-23 22.15-26.06a29.15 29.15 0 0 1 27.84 8 34.63 34.63 0 0 0 -25.7-3.34z" fill="#ffc82c"/></svg>