<svg height="84.92" viewBox="0 0 94.13 84.92" width="94.13" xmlns="http://www.w3.org/2000/svg"><path d="m81.75 13.49c-.36 0-.73 0-1.09 0-1.66-5.49-6.32-9.42-11.66-9.42a19.58 19.58 0 0 0 -2.14.15 14.37 14.37 0 0 0 -10.15-4.22c-8.14 0-14.71 6.51-16.17 15.67a13.75 13.75 0 0 0 -5.8 10.8c0 7.16 5.29 13 11.8 13h35.21c6.71 0 12.38-5.94 12.38-13s-5.67-12.98-12.38-12.98z" fill="#ddd"/><path d="m67.42 28.05c-.53 0-1 0-1.57.06a17.72 17.72 0 0 0 -16.79-12.11 30.74 30.74 0 0 0 -3.07.19 22 22 0 0 0 -14.49-5.37c-11.66 0-21.15 8.31-23.18 20-5.04 3.23-8.32 8.59-8.32 13.81a16.78 16.78 0 0 0 16.93 16.59h50.49c9.62 0 17.74-7.6 17.74-16.59s-8.16-16.58-17.74-16.58z" fill="#999"/><path d="m78.38 52.14a21.67 21.67 0 0 1 -3.7 5.44 15.51 15.51 0 0 0 7.08-7.12c3.44-7.23.08-15.59-7.5-19.24 6.03 4.19 7.94 12.89 4.12 20.92z" fill="#777" fill-rule="evenodd"/><g fill="#00bcd4"><path d="m14.65 71.66a3.47 3.47 0 0 1 -4.14 2.5 3.47 3.47 0 0 1 -2.33-4.23c1-3.7 8-17 8-17s-.4 14.5-1.53 18.73z"/><path d="m23.87 82.18a3.47 3.47 0 0 1 -4.14 2.5 3.47 3.47 0 0 1 -2.33-4.23c1-3.7 8-17 8-17s-.4 14.49-1.53 18.73z"/><path d="m38.11 71.66a3.35 3.35 0 1 1 -6.47-1.73c1-3.7 8-17 8-17s-.4 14.5-1.53 18.73z"/><path d="m47.91 82.31a3.35 3.35 0 1 1 -6.47-1.73c1-3.69 8-17 8-17s-.39 14.5-1.53 18.73z"/></g><path d="m57.32 57.77h12.35l-5.02 8.27h5.19l-10.64 13.73 2.1-8.19h-9.95z" fill="#ffe41f"/></svg>