<svg height="77.43" viewBox="0 0 94.65 77.43" width="94.65" xmlns="http://www.w3.org/2000/svg"><path d="m78.93 48c-.47 0-.93 0-1.39.05a15.71 15.71 0 0 0 -14.89-10.67c-.62 0-1.68 0-2.71.16a19.5 19.5 0 0 0 -12.84-4.77c-10.34 0-18.75 7.37-20.55 17.74-4.46 2.85-7.37 7.59-7.37 12.22a14.87 14.87 0 0 0 15 14.7h44.75c8.52 0 15.72-6.73 15.72-14.7s-7.2-14.73-15.72-14.73z" fill="#ddd"/><path d="m88.63 69.72a19.23 19.23 0 0 1 -3.28 4.83 13.76 13.76 0 0 0 6.28-6.31c3-6.42.07-13.82-6.65-17 5.35 3.65 7.02 11.36 3.65 18.48z" fill="#ccc" fill-rule="evenodd"/><path d="m66.94 45.6a27.55 27.55 0 0 0 1.06-7l4.89-2.49 5.11-2.61-5.59-1.33-5.31-1.28a27.33 27.33 0 0 0 -2.64-6.54l3-4.54 3.11-4.81-5.57 1.63-5.29 1.51a28.71 28.71 0 0 0 -5.61-4.34l.28-5.38.28-5.64-4 4.08-3.83 3.89a28.91 28.91 0 0 0 -7.12-1l-2.52-4.75-2.63-5-1.41 5.48-1.34 5.23a29.2 29.2 0 0 0 -6.7 2.63l-4.62-2.88-4.84-3 1.58 5.42 1.5 5.12a28.84 28.84 0 0 0 -4.48 5.55l-5.49-.23-5.76-.21 4.14 3.89 3.94 3.72a27.47 27.47 0 0 0 -1.06 7l-4.89 2.5-5.13 2.6 5.59 1.34 5.33 1.27a27.33 27.33 0 0 0 2.64 6.57l-3 4.55-3.11 4.73 5.55-1.59 5.3-1.51a28.36 28.36 0 0 0 5.63 4.34l-.28 5.39-.28 5.63 4-4.08 3.83-3.89a29.4 29.4 0 0 0 7.12 1l2.51 4.77 2.63 5 1.41-5.49 1.34-5.23a29.2 29.2 0 0 0 6.7-2.62l4.62 2.88 4.84 3-1.58-5.41-1.5-5.17a28.76 28.76 0 0 0 4.48-5.55l5.49.22 5.76.24-4.14-3.9z" fill="#f3712d"/><path d="m63.85 38.16a24.84 24.84 0 1 1 -24.85-25.16 25 25 0 0 1 24.85 25.16z" fill="#ffc82c"/><path d="m35.79 19.11a28.28 28.28 0 0 0 -20 17.59 24.58 24.58 0 0 1 18.21-21.42 24 24 0 0 1 22.88 6.57 28.5 28.5 0 0 0 -21.09-2.74z" fill="#ffd74b" fill-rule="evenodd"/></svg>