<svg height="104.44" viewBox="0 0 100.92 104.44" width="100.92" xmlns="http://www.w3.org/2000/svg"><path d="m80.18 54.61a33.2 33.2 0 0 0 1.26-8.36l5.86-3 6.15-3.13-6.7-1.6-6.38-1.52a33.36 33.36 0 0 0 -3.16-7.83l3.57-5.44 3.74-5.73-6.64 1.9-6.33 1.81a34.5 34.5 0 0 0 -6.75-5.2l.33-6.45.34-6.75-4.81 4.91-4.58 4.66a35 35 0 0 0 -8.53-1.18l-3.01-5.7-3.15-6-1.68 6.56-1.61 6.27a35.13 35.13 0 0 0 -8 3.15l-5.53-3.45-5.82-3.62 1.88 6.49 1.8 6.19a34.28 34.28 0 0 0 -5.36 6.65l-6.58-.24-6.89-.32 5 4.67 4.72 4.45a33.29 33.29 0 0 0 -1.32 8.37l-5.86 3-6.14 3.12 6.69 1.6 6.39 1.52a32.6 32.6 0 0 0 3.16 7.84l-3.57 5.44-3.75 5.71 6.64-1.9 6.34-1.82a34.16 34.16 0 0 0 6.75 5.21l-.33 6.44-.32 6.75 4.81-4.88 4.58-4.66a35 35 0 0 0 8.54 1.17l3 5.72 3.15 6 1.69-6.57 1.6-6.26a35.15 35.15 0 0 0 8-3.16l5.53 3.45 5.8 3.62-1.89-6.51-1.81-6.18a35 35 0 0 0 5.37-6.64l6.58.27 6.89.28-4.94-4.67z" fill="#f3712d"/><path d="m76.47 45.71a29.75 29.75 0 1 1 -29.75-30.11 29.92 29.92 0 0 1 29.75 30.11z" fill="#ffc82c"/><path d="m42.86 22.89c-11.61 2.91-20.39 11.11-23.86 21.11 1.32-12.12 9.7-22.62 21.81-25.65a28.72 28.72 0 0 1 27.41 7.87 34.15 34.15 0 0 0 -25.36-3.33z" fill="#ffd74b" fill-rule="evenodd"/><g fill="#eee"><path d="m80.52 75.2c-.6 0-1.21 0-1.82-.06-8.24-.53-15.32-5-21.57-8.86l-1.06-.66c-8.51-5.31-21.6-7.09-30.23 1.54a3 3 0 1 1 -4.24-4.25c7.67-7.66 22.72-11.68 37.64-2.39l1.07.67c5.93 3.7 12 7.53 18.78 8a21.83 21.83 0 0 0 16.71-6 3 3 0 1 1 4.25 4.24 27.82 27.82 0 0 1 -19.53 7.77z" opacity=".6"/><path d="m80.52 89.82c-.6 0-1.21 0-1.82-.06-8.24-.53-15.32-5-21.57-8.86l-1.06-.66c-8.51-5.31-21.6-7.09-30.23 1.54a3 3 0 1 1 -4.24-4.25c7.67-7.67 22.72-11.68 37.64-2.39l1.07.67c5.93 3.7 12 7.53 18.78 8a21.83 21.83 0 0 0 16.71-6 3 3 0 1 1 4.25 4.19 27.82 27.82 0 0 1 -19.53 7.82z" opacity=".75"/><path d="m80.52 104.44c-.6 0-1.21 0-1.82-.06-8.24-.53-15.32-4.95-21.56-8.86l-1.07-.66c-8.51-5.31-21.61-7.09-30.23 1.54a3 3 0 1 1 -4.24-4.25c7.66-7.66 22.72-11.68 37.64-2.39l1.08.67c5.92 3.71 12 7.53 18.77 8a21.83 21.83 0 0 0 16.71-6 3 3 0 0 1 4.25 4.24 27.82 27.82 0 0 1 -19.53 7.77z" opacity=".9"/><circle cx="31.34" cy="65.19" opacity=".75" r="2"/><circle cx="44.35" cy="96.96" opacity=".75" r="2"/><circle cx="71" cy="80.97" opacity=".75" r="2"/><circle cx="93.58" cy="93.96" opacity=".75" r="2"/><circle cx="85.9" cy="59.12" opacity=".75" r="2"/></g></svg>