<svg height="107.06" viewBox="0 0 114.92 107.06" width="114.92" xmlns="http://www.w3.org/2000/svg"><path d="m104.61 42.4a25.47 25.47 0 0 0 1-6.49l4.55-2.32 4.77-2.44-5.2-1.24-5-1.18a25.54 25.54 0 0 0 -2.45-6.09l2.77-4.22 2.95-4.42-5.16 1.47-4.92 1.41a27.11 27.11 0 0 0 -5.24-4l.26-5 .26-5.24-3.74 3.74-3.56 3.62a27.32 27.32 0 0 0 -6.62-.92l-2.28-4.43-2.5-4.65-1.31 5.1-1.25 4.9a27.48 27.48 0 0 0 -6.23 2.45l-4.29-2.72-4.5-2.81 1.46 5 1.4 4.8a27.18 27.18 0 0 0 -4.17 5.16l-5.11-.2-5.35-.23 3.85 3.67 3.66 3.45a26.06 26.06 0 0 0 -1 6.5l-4.55 2.32-4.77 2.43 5.2 1.24 5 1.19a25.47 25.47 0 0 0 2.46 6.08l-2.8 4.22-2.91 4.45 5.16-1.48 4.92-1.41a26 26 0 0 0 5.23 4l-.25 5-.27 5.24 3.74-3.79 3.55-3.56a27.47 27.47 0 0 0 6.63.91l2.33 4.44 2.45 4.65 1.31-5.1 1.24-4.9a27.56 27.56 0 0 0 6.24-2.45l4.29 2.68 4.5 2.81-1.46-5.04-1.4-4.81a26.44 26.44 0 0 0 4.16-5.16l5.11.21 5.35.22-3.84-3.62z" fill="#f3712d"/><path d="m101.73 35.49a23.1 23.1 0 1 1 -23.09-23.38 23.23 23.23 0 0 1 23.09 23.38z" fill="#ffc82c"/><path d="m75.64 17.77a26.28 26.28 0 0 0 -18.56 16.36 22.83 22.83 0 0 1 16.92-19.92 22.3 22.3 0 0 1 21.28 6.11 26.51 26.51 0 0 0 -19.64-2.55z" fill="#ffd74b" fill-rule="evenodd"/><path d="m77.52 46.19c-.56 0-1.11 0-1.67.06a18.78 18.78 0 0 0 -17.8-12.81 32 32 0 0 0 -3.25.2 23.3 23.3 0 0 0 -15.36-5.72c-12.36 0-22.42 8.82-24.57 21.22-5.34 3.41-8.82 9.09-8.82 14.63a17.78 17.78 0 0 0 17.95 17.58h53.52c10.19 0 18.81-8 18.81-17.58s-8.62-17.58-18.81-17.58z" fill="#ddd"/><path d="m90.32 72.13a22.94 22.94 0 0 1 -3.92 5.77 16.4 16.4 0 0 0 7.51-7.55c3.64-7.67.09-16.53-7.91-20.35 6.35 4.39 8.37 13.61 4.32 22.13z" fill="#ccc" fill-rule="evenodd"/><g fill="#eee"><path d="m59.81 77.82c-.61 0-1.22 0-1.82-.06-8.25-.53-15.33-5-21.58-8.86l-1.06-.66c-8.51-5.31-21.6-7.09-30.23 1.54a3 3 0 0 1 -4.24-4.24c7.67-7.67 22.72-11.69 37.64-2.4l1.07.67c5.93 3.7 12 7.53 18.78 8a21.83 21.83 0 0 0 16.71-6 3 3 0 1 1 4.25 4.19 27.81 27.81 0 0 1 -19.52 7.82z" opacity=".6"/><path d="m59.81 92.44c-.61 0-1.22 0-1.82-.06-8.25-.53-15.33-4.95-21.58-8.86l-1.06-.66c-8.51-5.31-21.6-7.09-30.23 1.54a3 3 0 0 1 -4.24-4.24c7.67-7.67 22.72-11.69 37.64-2.4l1.07.67c5.93 3.7 12 7.53 18.78 8a21.82 21.82 0 0 0 16.71-6 3 3 0 0 1 4.25 4.24 27.81 27.81 0 0 1 -19.52 7.77z" opacity=".75"/><path d="m59.8 107.06c-.6 0-1.21 0-1.81-.06-8.24-.53-15.33-5-21.57-8.86l-1.07-.66c-8.51-5.31-21.6-7.08-30.23 1.52a3 3 0 1 1 -4.24-4.22c7.67-7.67 22.72-11.69 37.64-2.4l1.08.67c5.92 3.71 12 7.53 18.77 8a21.86 21.86 0 0 0 16.71-6 3 3 0 0 1 4.25 4.24 27.82 27.82 0 0 1 -19.53 7.77z" opacity=".9"/><circle cx="10.62" cy="67.81" opacity=".75" r="2"/><circle cx="23.64" cy="99.58" opacity=".75" r="2"/><circle cx="50.28" cy="83.59" opacity=".75" r="2"/><circle cx="72.86" cy="96.58" opacity=".75" r="2"/><circle cx="65.18" cy="61.74" opacity=".75" r="2"/></g></svg>