<svg height="90.7" viewBox="0 0 110.85 90.7" width="110.85" xmlns="http://www.w3.org/2000/svg"><path d="m83.3 34.32a20.91 20.91 0 0 0 .8-5.26l3.68-1.88 3.86-2-4.2-1-4-1a20.94 20.94 0 0 0 -2-4.92l2.24-3.42 2.32-3.52-4.17 1.2-4 1.13a22 22 0 0 0 -4.24-3.26l.2-4.05.22-4.25-3.01 3.07-2.84 2.93a22.14 22.14 0 0 0 -5.36-.74l-1.89-3.59-1.98-3.76-1.06 4.12-1 3.94a22.2 22.2 0 0 0 -5 2l-3.53-2.18-3.64-2.28 1.18 4.08 1.12 3.89a21.82 21.82 0 0 0 -3.38 4.17l-4.13-.16-4.33-.18 3.11 2.93 3 2.8a20.46 20.46 0 0 0 -.8 5.25l-3.68 1.88-3.86 2 4.2 1 4 1a20.43 20.43 0 0 0 2 4.93l-2.24 3.42-2.35 3.58 4.17-1.19 4-1.14a21.41 21.41 0 0 0 4.24 3.27l-.21 4-.21 4.24 3-3.07 2.88-2.93a21.66 21.66 0 0 0 5.36.74l1.89 3.6 2 3.76 1.06-4.13 1-3.93a22 22 0 0 0 5-2l3.48 2.17 3.64 2.28-1.18-4.08-1.14-3.89a21.57 21.57 0 0 0 3.38-4.18l4.13.17 4.33.18-3.11-2.93z" fill="#f3712d"/><path d="m81 28.72a18.69 18.69 0 1 1 -18.72-18.92 18.81 18.81 0 0 1 18.72 18.92z" fill="#ffc82c"/><path d="m59.85 14.38a21.27 21.27 0 0 0 -15 13.24 18.48 18.48 0 0 1 13.68-16.12 18 18 0 0 1 17.23 4.95 21.44 21.44 0 0 0 -15.91-2.07z" fill="#ffd74b" fill-rule="evenodd"/><path d="m71.86 28c-.56 0-1.11 0-1.67.06a18.88 18.88 0 0 0 -17.9-12.86 32.34 32.34 0 0 0 -3.27.2 23.42 23.42 0 0 0 -15.44-5.75c-12.43 0-22.58 8.87-24.71 21.35-5.37 3.42-8.87 9.12-8.87 14.7a17.88 17.88 0 0 0 18 17.68h53.86c10.26 0 18.92-8.1 18.92-17.68s-8.66-17.7-18.92-17.7z" fill="#ddd"/><path d="m84.74 54.1a23 23 0 0 1 -3.94 5.8 16.53 16.53 0 0 0 7.54-7.58c3.67-7.72.09-16.62-8-20.51 6.44 4.46 8.47 13.73 4.4 22.29z" fill="#ccc" fill-rule="evenodd"/><path d="m27.4 58.25c-.1 0-8.75 7.94-9.68 11.31a6.33 6.33 0 1 0 12.2 3.37c.93-3.37-2.42-14.65-2.52-14.68z" fill="#00bcd4"/><circle cx="19.65" cy="86.98" fill="#00bcd4" r="3.72"/><g fill="#eee"><path d="m90.45 61.37c-.61 0-1.21 0-1.82-.06-8.24-.53-15.32-5-21.57-8.86l-1.06-.67c-8.51-5.3-21.6-7.08-30.23 1.54a3 3 0 1 1 -4.24-4.24c7.67-7.67 22.72-11.69 37.65-2.39l1.07.67c5.92 3.7 12 7.53 18.77 8a21.85 21.85 0 0 0 16.72-6 3 3 0 0 1 4.26 4.19 27.82 27.82 0 0 1 -19.55 7.82z" opacity=".6"/><path d="m90.45 76c-.61 0-1.21 0-1.82-.06-8.24-.53-15.32-5-21.57-8.86l-1.06-.68c-8.51-5.3-21.6-7.08-30.23 1.54a3 3 0 0 1 -4.24-4.24c7.66-7.7 22.71-11.7 37.64-2.39l1.07.67c5.92 3.7 12 7.53 18.77 8a21.89 21.89 0 0 0 16.72-6 3 3 0 0 1 4.27 4.19 27.82 27.82 0 0 1 -19.55 7.83z" opacity=".75"/><path d="m90.45 90.61c-.61 0-1.21 0-1.82-.06-8.24-.53-15.32-5-21.57-8.86l-1.06-.69c-8.51-5.3-21.6-7.08-30.23 1.54a3 3 0 0 1 -4.24-4.24c7.67-7.67 22.72-11.69 37.65-2.39l1.07.67c5.92 3.7 12.05 7.53 18.77 8a21.85 21.85 0 0 0 16.72-6 3 3 0 0 1 4.26 4.21 27.82 27.82 0 0 1 -19.55 7.82z" opacity=".9"/><circle cx="41.27" cy="51.35" opacity=".75" r="2"/><circle cx="54.28" cy="83.13" opacity=".75" r="2"/><circle cx="80.92" cy="67.13" opacity=".75" r="2"/><circle cx="103.5" cy="80.13" opacity=".75" r="2"/><circle cx="95.83" cy="45.28" opacity=".75" r="2"/></g><path d="m57.45 58.3h13.79l-5.61 9.23h5.79l-11.87 15.33 2.35-9.14h-11.11z" fill="#ffe41f"/></svg>