<svg height="76.93" viewBox="0 0 91.43 76.93" width="91.43" xmlns="http://www.w3.org/2000/svg"><path d="m72.38 18.5c-.57 0-1.13 0-1.69.06a19 19 0 0 0 -18-13 29.82 29.82 0 0 0 -3.29.2 23.63 23.63 0 0 0 -15.58-5.76c-12.52 0-22.71 8.93-24.89 21.49-5.41 3.45-8.93 9.2-8.93 14.81a18 18 0 0 0 18.17 17.81h54.21c10.32 0 19.05-8.11 19.05-17.81s-8.73-17.8-19.05-17.8z" fill="#ddd"/><path d="m85.34 44.77a23.2 23.2 0 0 1 -4 5.84 16.62 16.62 0 0 0 7.66-7.61c3.7-7.77.09-16.74-8-20.66 6.4 4.47 8.44 13.8 4.34 22.43z" fill="#ccc" fill-rule="evenodd"/><g fill="#00bcd4"><path d="m27.17 46.45c-.06 0-5.66 5.14-6.26 7.32a4.09 4.09 0 1 0 7.89 2.23c.6-2.23-1.56-9.53-1.63-9.55z"/><path d="m42 64.42c-.06 0-5.67 5.14-6.27 7.32a4.1 4.1 0 1 0 7.9 2.18c.55-2.18-1.63-9.48-1.63-9.5z"/><path d="m60.46 52.71c-.06 0-5.66 5.14-6.26 7.32a4.09 4.09 0 1 0 7.89 2.17c.61-2.2-1.56-9.48-1.63-9.49z"/></g></svg>