<svg height="83.11" viewBox="0 0 82.49 83.11" width="82.49" xmlns="http://www.w3.org/2000/svg"><g fill-rule="evenodd"><path d="m47.84 46.76a33.39 33.39 0 0 1 -47.65-.18l-.19-.21c2.69 20.63 20.14 36.63 41.22 36.74 22.88.09 41.36-18.64 41.27-41.82a42.24 42.24 0 0 0 -33.43-41.29 34.44 34.44 0 0 1 -1.22 46.76z" fill="#f9a607"/><path d="m72.15 56.08a40.93 40.93 0 0 1 -6.15 10.21 27.71 27.71 0 0 0 11.81-13.36 28.51 28.51 0 0 0 -12.53-36.11c10.08 7.85 13.26 24.18 6.87 39.26z" fill="#ffd74b"/></g></svg>