<svg height="99.86" viewBox="0 0 95.28 99.86" width="95.28" xmlns="http://www.w3.org/2000/svg"><path d="m51.93 36a25.7 25.7 0 0 1 -36.68-.14l-.15-.16a32.35 32.35 0 0 0 31.73 28.3 31.83 31.83 0 0 0 31.77-32.22 32.53 32.53 0 0 0 -25.73-31.78 26.51 26.51 0 0 1 -.94 36z" fill="#f9a607" fill-rule="evenodd"/><path d="m70.64 43.16a31.74 31.74 0 0 1 -4.76 7.84 21.32 21.32 0 0 0 9.12-10.26 22 22 0 0 0 -9.64-27.8c7.74 6.06 10.19 18.61 5.28 30.22z" fill="#ffd74b" fill-rule="evenodd"/><path d="m75.44 39.21c-.59 0-1.18 0-1.76.07a19.8 19.8 0 0 0 -18.78-13.53 32.8 32.8 0 0 0 -3.43.21 24.57 24.57 0 0 0 -16.21-6c-13 0-23.67 9.29-25.94 22.39-5.64 3.55-9.32 9.54-9.32 15.39a18.77 18.77 0 0 0 18.93 18.56h56.49c10.77 0 19.86-8.49 19.86-18.55s-9.08-18.54-19.84-18.54z" fill="#ddd"/><path d="m18.13 6.59a12.62 12.62 0 0 0 -15.29 16.41l-2.73 1.48 8.46 3.93 1-9.27-2.57 1.47a8.05 8.05 0 0 1 .07-4 8 8 0 0 1 14.6-1.78l4.07-2.29a12.53 12.53 0 0 0 -7.61-5.95z" fill="#41bff7"/><path d="m87.07 66.4a24.15 24.15 0 0 1 -4.08 6 17.12 17.12 0 0 0 7.81-7.85c3.79-8 .09-17.2-8.27-21.22 6.65 4.61 8.75 14.21 4.54 23.07z" fill="#ccc" fill-rule="evenodd"/><g fill="#00bcd4"><path d="m28 68.55c-.07 0-5.83 5.28-6.44 7.52a4.21 4.21 0 1 0 8.11 2.23c.61-2.24-1.62-9.74-1.67-9.75z"/><path d="m43.17 87c-.07 0-5.82 5.28-6.44 7.52a4.21 4.21 0 1 0 8.12 2.24c.61-2.24-1.61-9.76-1.68-9.76z"/><path d="m62.19 75c-.06 0-5.82 5.28-6.44 7.52a4.21 4.21 0 1 0 8.12 2.24c.62-2.27-1.61-9.76-1.68-9.76z"/></g></svg>