<svg height="104.64" viewBox="0 0 112.02 104.64" width="112.02" xmlns="http://www.w3.org/2000/svg"><path d="m46.78 39.39a28.13 28.13 0 0 1 -40.14-.16l-.16-.17a35.38 35.38 0 0 0 34.72 30.94 34.82 34.82 0 0 0 34.8-35.23 35.58 35.58 0 0 0 -28.2-34.77 29 29 0 0 1 -1.02 39.39z" fill="#f9a607" fill-rule="evenodd"/><path d="m67.25 47.23a34.57 34.57 0 0 1 -5.2 8.6 23.25 23.25 0 0 0 9.95-11.25 24 24 0 0 0 -10.54-30.41c8.54 6.61 11.17 20.36 5.79 33.06z" fill="#ffd74b" fill-rule="evenodd"/><path d="m93.21 55.14c-.56 0-1.11 0-1.66.06a18.8 18.8 0 0 0 -17.81-12.81 32 32 0 0 0 -3.25.2 23.25 23.25 0 0 0 -15.36-5.72c-12.36 0-22.42 8.82-24.57 21.22-5.34 3.41-8.82 9.09-8.82 14.63a17.79 17.79 0 0 0 17.94 17.58h53.53c10.19 0 18.81-8 18.81-17.58s-8.62-17.58-18.81-17.58z" fill="#ddd"/><path d="m106 81.08a22.94 22.94 0 0 1 -3.92 5.77 16.4 16.4 0 0 0 7.51-7.55c3.64-7.67.08-16.53-7.95-20.39 6.36 4.43 8.42 13.65 4.36 22.17z" fill="#ccc" fill-rule="evenodd"/><g fill="#eee"><path d="m59.81 75.4c-.61 0-1.22 0-1.82-.06-8.25-.53-15.33-5-21.58-8.86l-1.06-.67c-8.51-5.3-21.6-7.08-30.23 1.55a3 3 0 0 1 -4.24-4.25c7.67-7.67 22.72-11.69 37.64-2.39l1.07.67c5.93 3.7 12 7.53 18.78 8a21.83 21.83 0 0 0 16.71-6 3 3 0 0 1 4.25 4.24 27.86 27.86 0 0 1 -19.52 7.77z" opacity=".6"/><path d="m59.81 90c-.61 0-1.22 0-1.81 0-8.25-.53-15.33-5-21.58-8.86l-1.06-.67c-8.51-5.3-21.6-7.08-30.23 1.55a3 3 0 0 1 -4.25-4.29c7.67-7.67 22.72-11.73 37.64-2.39l1.07.67c5.93 3.7 12 7.53 18.78 8a21.85 21.85 0 0 0 16.71-6 3 3 0 0 1 4.25 4.24 27.86 27.86 0 0 1 -19.52 7.75z" opacity=".75"/><path d="m59.8 104.64c-.6 0-1.21 0-1.81-.06-8.24-.53-15.33-5-21.57-8.86l-1.07-.67c-8.51-5.3-21.6-7.05-30.23 1.55a3 3 0 0 1 -4.24-4.25c7.67-7.67 22.72-11.69 37.64-2.35l1.08.67c5.92 3.7 12 7.53 18.77 8a21.82 21.82 0 0 0 16.71-6 3 3 0 1 1 4.25 4.24 27.86 27.86 0 0 1 -19.53 7.73z" opacity=".9"/><circle cx="10.62" cy="65.38" opacity=".75" r="2"/><circle cx="23.64" cy="97.16" opacity=".75" r="2"/><circle cx="50.28" cy="81.16" opacity=".75" r="2"/><circle cx="72.86" cy="94.16" opacity=".75" r="2"/><circle cx="65.18" cy="59.32" opacity=".75" r="2"/></g></svg>