<svg height="87.18" viewBox="0 0 110.18 87.18" width="110.18" xmlns="http://www.w3.org/2000/svg"><path d="m72 40.41a28.83 28.83 0 0 1 -41.17-.16l-.17-.18a36.31 36.31 0 0 0 35.59 31.75 35.73 35.73 0 0 0 35.67-36.14 36.52 36.52 0 0 0 -28.92-35.68 29.76 29.76 0 0 1 -1 40.41z" fill="#f9a607" fill-rule="evenodd"/><path d="m93 48.46a35.39 35.39 0 0 1 -5.34 8.82 24 24 0 0 0 10.21-11.54 24.64 24.64 0 0 0 -10.87-31.21c8.75 6.79 11.5 20.9 6 33.93z" fill="#ffd74b" fill-rule="evenodd"/><path d="m90.65 35.45c-.58 0-1.15 0-1.73.07a19.49 19.49 0 0 0 -18.48-13.31 32 32 0 0 0 -3.38.21 24.19 24.19 0 0 0 -16-5.94c-12.83 0-23.28 9.16-25.51 22-5.55 3.54-9.16 9.43-9.16 15.19a18.46 18.46 0 0 0 18.68 18.33h55.58c10.59 0 19.53-8.36 19.53-18.26s-8.94-18.29-19.53-18.29z" fill="#ddd"/><path d="m102.21 61.62a23.79 23.79 0 0 1 -4.07 6 17 17 0 0 0 7.79-7.83c3.79-8 .09-17.17-8.25-21.18 6.63 4.59 8.73 14.17 4.53 23.01z" fill="#ccc" fill-rule="evenodd"/><g fill="#eee"><path d="m59.81 57.94c-.61 0-1.22 0-1.82-.06-8.25-.53-15.33-5-21.58-8.86l-1.06-.67c-8.51-5.3-21.6-7.08-30.23 1.54a3 3 0 0 1 -4.24-4.24c7.67-7.65 22.72-11.65 37.64-2.39l1.07.67c5.93 3.7 12 7.53 18.78 8a21.83 21.83 0 0 0 16.71-6 3 3 0 1 1 4.25 4.24 27.86 27.86 0 0 1 -19.52 7.77z" opacity=".6"/><path d="m59.81 72.56c-.61 0-1.22 0-1.82-.06-8.25-.53-15.33-5-21.58-8.86l-1.06-.64c-8.51-5.3-21.6-7.08-30.23 1.54a3 3 0 0 1 -4.24-4.27c7.67-7.67 22.72-11.69 37.64-2.39l1.07.67c5.93 3.7 12 7.53 18.78 8a21.85 21.85 0 0 0 16.71-6 3 3 0 1 1 4.25 4.24 27.86 27.86 0 0 1 -19.52 7.77z" opacity=".75"/><path d="m59.8 87.18c-.6 0-1.21 0-1.81-.06-8.24-.53-15.33-5-21.57-8.86l-1.07-.67c-8.51-5.3-21.6-7.08-30.23 1.54a3 3 0 0 1 -4.24-4.24c7.67-7.67 22.72-11.69 37.64-2.39l1.08.67c5.92 3.7 12 7.53 18.77 8a21.82 21.82 0 0 0 16.71-6 3 3 0 0 1 4.25 4.24 27.86 27.86 0 0 1 -19.53 7.77z" opacity=".9"/><circle cx="10.62" cy="47.92" opacity=".75" r="2"/><circle cx="23.64" cy="79.7" opacity=".75" r="2"/><circle cx="50.28" cy="63.7" opacity=".75" r="2"/><circle cx="72.86" cy="76.7" opacity=".75" r="2"/><circle cx="65.18" cy="41.86" opacity=".75" r="2"/></g></svg>