<svg height="56.26" viewBox="0 0 95.07 56.26" width="95.07" xmlns="http://www.w3.org/2000/svg"><path d="m75.26 19.23c-.58 0-1.17 0-1.75.07a19.78 19.78 0 0 0 -18.75-13.49 32.79 32.79 0 0 0 -3.42.19 24.52 24.52 0 0 0 -16.17-6c-13 0-23.62 9.28-25.88 22.35-5.63 3.59-9.29 9.56-9.29 15.4a18.73 18.73 0 0 0 18.9 18.51h56.36c10.74 0 19.81-8.47 19.81-18.51s-9.07-18.52-19.81-18.52z" fill="#999"/><path d="m87.5 46.13a24.27 24.27 0 0 1 -4.13 6.07 17.27 17.27 0 0 0 7.9-7.94c3.84-8.08.09-17.41-8.36-21.48 6.72 4.67 8.85 14.38 4.59 23.35z" fill="#777" fill-rule="evenodd"/></svg>