<svg height="82.72" viewBox="0 0 95.07 82.72" width="95.07" xmlns="http://www.w3.org/2000/svg"><path d="m75.26 19.23c-.58 0-1.17 0-1.75.07a19.78 19.78 0 0 0 -18.75-13.49 32.79 32.79 0 0 0 -3.42.19 24.52 24.52 0 0 0 -16.17-6c-13 0-23.62 9.28-25.88 22.35-5.63 3.59-9.29 9.56-9.29 15.4a18.73 18.73 0 0 0 18.9 18.51h56.36c10.74 0 19.81-8.47 19.81-18.51s-9.07-18.52-19.81-18.52z" fill="#999"/><path d="m87.5 46.13a24.27 24.27 0 0 1 -4.13 6.07 17.27 17.27 0 0 0 7.9-7.94c3.84-8.08.09-17.41-8.36-21.48 6.72 4.67 8.85 14.38 4.59 23.35z" fill="#777" fill-rule="evenodd"/><g fill="#00bcd4"><path d="m16.35 67.92a3.87 3.87 0 0 1 -4.62 2.79 3.87 3.87 0 0 1 -2.6-4.71c1.11-4.13 8.95-18.94 8.95-18.94s-.46 16.13-1.73 20.86z"/><path d="m26.64 79.66a3.85 3.85 0 0 1 -4.64 2.79 3.87 3.87 0 0 1 -2.61-4.72c1.11-4.13 9-18.94 9-18.94s-.48 16.14-1.75 20.87z"/><path d="m42.54 67.92a3.74 3.74 0 1 1 -7.22-1.92c1.11-4.13 9-18.94 9-18.94s-.51 16.13-1.78 20.86z"/><path d="m53.49 79.81a3.74 3.74 0 1 1 -7.22-1.93c1.1-4.13 8.94-18.94 8.94-18.94s-.46 16.15-1.72 20.87z"/></g><path d="m63.99 52.42h13.79l-5.61 9.22h5.79l-11.88 15.33 2.36-9.13h-11.11z" fill="#ffe41f"/></svg>