<svg height="94.86" viewBox="0 0 104.2 94.86" width="104.2" xmlns="http://www.w3.org/2000/svg"><path d="m88.48 48c-.47 0-.93 0-1.39.05a15.71 15.71 0 0 0 -14.88-10.67c-.63 0-1.69 0-2.72.16a19.48 19.48 0 0 0 -12.84-4.77c-10.33 0-18.75 7.37-20.54 17.74-4.47 2.85-7.38 7.59-7.38 12.22a14.87 14.87 0 0 0 15 14.7h44.75c8.52 0 15.72-6.73 15.72-14.7s-7.2-14.73-15.72-14.73z" fill="#ddd"/><path d="m98.18 69.72a19.46 19.46 0 0 1 -3.27 4.83 13.79 13.79 0 0 0 6.27-6.31c3-6.42.07-13.82-6.64-17 5.34 3.65 7.03 11.36 3.64 18.48z" fill="#ccc" fill-rule="evenodd"/><path d="m76.5 45.6a28 28 0 0 0 1-7l4.9-2.49 5.12-2.62-5.52-1.32-5.34-1.28a27.3 27.3 0 0 0 -2.66-6.54l3-4.54 3.12-4.81-5.54 1.59-5.29 1.51a29 29 0 0 0 -5.63-4.34l.27-5.38.28-5.64-4 4.08-3.82 3.89a29.06 29.06 0 0 0 -7.13-1l-2.52-4.71-2.63-5-1.4 5.48-1.35 5.23a29.38 29.38 0 0 0 -6.7 2.63l-4.61-2.88-4.84-3 1.57 5.42 1.5 5.12a28.84 28.84 0 0 0 -4.48 5.55l-5.49-.23-5.75-.24 4.13 3.92 3.94 3.72a27.92 27.92 0 0 0 -1.06 7l-4.89 2.5-5.13 2.6 5.59 1.34 5.33 1.27a27.74 27.74 0 0 0 2.64 6.57l-3 4.55-3.11 4.73 5.55-1.59 5.29-1.51a28.65 28.65 0 0 0 5.63 4.34l-.27 5.39-.29 5.63 4-4.08 3.82-3.89a29.4 29.4 0 0 0 7.12 1l2.51 4.77 2.63 5 1.41-5.49 1.34-5.23a29.46 29.46 0 0 0 6.73-2.62l4.61 2.88 4.84 3-1.57-5.41-1.51-5.17a28.76 28.76 0 0 0 4.48-5.55l5.5.22 5.75.24-4.13-3.9z" fill="#f3712d"/><path d="m73.4 38.16a24.84 24.84 0 1 1 -24.84-25.16 25 25 0 0 1 24.84 25.16z" fill="#ffc82c"/><path d="m45.34 19.11a28.27 28.27 0 0 0 -20 17.59 24.55 24.55 0 0 1 18.2-21.42 24 24 0 0 1 22.89 6.57 28.53 28.53 0 0 0 -21.09-2.74z" fill="#ffd74b" fill-rule="evenodd"/><g fill="#eee"><path d="m59.81 65.62c-.61 0-1.22 0-1.82-.06-8.25-.53-15.33-5-21.58-8.86l-1.06-.7c-8.51-5.27-21.6-7-30.23 1.58a3 3 0 0 1 -4.24-4.24c7.67-7.67 22.72-11.69 37.64-2.4l1.07.67c5.93 3.7 12 7.53 18.78 8a21.83 21.83 0 0 0 16.71-6 3 3 0 1 1 4.25 4.24 27.81 27.81 0 0 1 -19.52 7.77z" opacity=".6"/><path d="m59.81 80.24c-.61 0-1.22 0-1.82-.06-8.25-.53-15.33-5-21.58-8.86l-1.06-.66c-8.51-5.31-21.6-7.09-30.23 1.54a3 3 0 0 1 -4.24-4.2c7.67-7.67 22.72-11.69 37.64-2.4l1.07.67c5.93 3.7 12 7.53 18.78 8a21.82 21.82 0 0 0 16.71-6 3 3 0 0 1 4.25 4.24 27.81 27.81 0 0 1 -19.52 7.73z" opacity=".75"/><path d="m59.8 94.86c-.6 0-1.21 0-1.81-.06-8.24-.53-15.33-5-21.57-8.86l-1.07-.66c-8.51-5.28-21.6-7.08-30.23 1.54a3 3 0 0 1 -4.24-4.24c7.67-7.67 22.72-11.69 37.64-2.4l1.08.67c5.92 3.71 12 7.53 18.77 8a21.86 21.86 0 0 0 16.71-6 3 3 0 0 1 4.25 4.15 27.82 27.82 0 0 1 -19.53 7.86z" opacity=".9"/><circle cx="10.62" cy="55.61" opacity=".75" r="2"/><circle cx="23.64" cy="87.38" opacity=".75" r="2"/><circle cx="50.28" cy="71.39" opacity=".75" r="2"/><circle cx="72.86" cy="84.38" opacity=".75" r="2"/><circle cx="65.18" cy="49.54" opacity=".75" r="2"/></g></svg>