<svg height="88.68" viewBox="0 0 99.21 88.68" width="99.21" xmlns="http://www.w3.org/2000/svg"><path d="m92.26 54.49a23.24 23.24 0 0 1 -4 5.84 16.6 16.6 0 0 0 7.6-7.64c3.72-7.77.14-16.69-8.01-20.69 6.47 4.53 8.51 13.86 4.41 22.49z" fill="#ccc" fill-rule="evenodd"/><path d="m79.3 28.22c-.57 0-1.13 0-1.69.06a19 19 0 0 0 -18-13 32.68 32.68 0 0 0 -3.29.2 23.6 23.6 0 0 0 -15.58-5.76c-12.52 0-22.74 8.93-24.89 21.49-5.41 3.46-8.93 9.2-8.93 14.79a18 18 0 0 0 18.17 17.83h54.21c10.32 0 19-8.15 19-17.81s-8.68-17.8-19-17.8zm9 32.11a23.24 23.24 0 0 0 4-5.84c4.1-8.63 2.06-18-4.41-22.46 8.11 3.97 11.69 12.89 8 20.66a16.6 16.6 0 0 1 -7.6 7.64z" fill="#ddd"/><path d="m59.58 15.31a19.24 19.24 0 0 1 4 .43 22.11 22.11 0 0 1 3.65-1.25 21.55 21.55 0 0 1 16 2.08 18.14 18.14 0 0 0 -17.34-5 18 18 0 0 0 -7.27 3.75z" fill="#ffd74b" fill-rule="evenodd"/><path d="m91.32 32.33a22 22 0 0 0 .3-3.06l3.71-1.89 3.88-2-4.23-1-4-1a21.12 21.12 0 0 0 -2-5l2.22-3.38 2.37-3.62-4.21 1.21-4 1.14a21.78 21.78 0 0 0 -4.27-3.29l.21-4.08.22-4.27-3 3.09-2.91 3a21.92 21.92 0 0 0 -5.4-.74l-1.9-3.62-2.04-3.82-1.07 4.15-1 4a22 22 0 0 0 -5.08 2l-3.52-2.22-3.66-2.29 1.19 4.11 1.14 3.91-.19.2c.74.51 1.48 1 2.21 1.64a18.67 18.67 0 0 1 13.35-5.63 19 19 0 0 1 18.83 19.06c0 .52 0 1-.08 1.53" fill="#f3712d"/><path d="m69.64 9.87a18.67 18.67 0 0 0 -13.35 5.63c.82-.09 1.63-.15 2.31-.18a18 18 0 0 1 7.27-3.75 18.14 18.14 0 0 1 17.34 5 21.55 21.55 0 0 0 -16-2.08 22.11 22.11 0 0 0 -3.65 1.25 19 19 0 0 1 14.05 12.54c.56 0 1.12-.06 1.69-.06a19.65 19.65 0 0 1 9.09 2.24c0-.5.08-1 .08-1.53a19 19 0 0 0 -18.83-19.06z" fill="#ffc82c"/><g fill="#eee"><path d="m59.81 59.44c-.61 0-1.22 0-1.82 0-8.25-.53-15.33-5-21.58-8.87l-1.06-.66c-8.51-5.3-21.6-7.08-30.23 1.54a3 3 0 1 1 -4.24-4.29c7.67-7.67 22.72-11.69 37.64-2.39l1.07.67c5.93 3.7 12 7.53 18.78 8a21.84 21.84 0 0 0 16.71-6 3 3 0 0 1 4.25 4.25 27.85 27.85 0 0 1 -19.52 7.75z" opacity=".6"/><path d="m59.81 74.06c-.61 0-1.22 0-1.82 0-8.25-.53-15.33-5-21.58-8.87l-1.06-.66c-8.51-5.35-21.6-7.13-30.23 1.47a3 3 0 0 1 -4.24-4.22c7.67-7.67 22.72-11.69 37.64-2.39l1.07.67c5.93 3.7 12 7.53 18.78 8a21.86 21.86 0 0 0 16.71-6 3 3 0 0 1 4.25 4.25 27.85 27.85 0 0 1 -19.52 7.75z" opacity=".75"/><path d="m59.8 88.68c-.6 0-1.21 0-1.81-.05-8.24-.53-15.33-5-21.57-8.86l-1.07-.67c-8.51-5.3-21.6-7.1-30.23 1.54a3 3 0 1 1 -4.24-4.24c7.67-7.67 22.72-11.69 37.64-2.4l1.08.67c5.92 3.7 12 7.53 18.77 8a21.82 21.82 0 0 0 16.71-6 3 3 0 0 1 4.25 4.25 27.86 27.86 0 0 1 -19.53 7.76z" opacity=".9"/><circle cx="10.62" cy="49.43" opacity=".75" r="2"/><circle cx="23.64" cy="81.2" opacity=".75" r="2"/><circle cx="50.28" cy="65.21" opacity=".75" r="2"/><circle cx="72.86" cy="78.2" opacity=".75" r="2"/><circle cx="65.18" cy="43.36" opacity=".75" r="2"/></g></svg>