<svg height="81.99" viewBox="0 0 101.85 81.99" width="101.85" xmlns="http://www.w3.org/2000/svg"><path d="m82 19.23c-.59 0-1.17 0-1.75.07a19.78 19.78 0 0 0 -18.71-13.49 32.79 32.79 0 0 0 -3.42.19 24.52 24.52 0 0 0 -16.12-6c-13 0-23.62 9.28-25.88 22.35-5.63 3.59-9.29 9.56-9.29 15.4a18.73 18.73 0 0 0 18.84 18.51h56.33c10.74 0 19.81-8.47 19.81-18.51s-9.03-18.52-19.81-18.52z" fill="#999"/><path d="m94.27 46.13a24 24 0 0 1 -4.12 6.07 17.27 17.27 0 0 0 7.9-7.94c3.84-8.08.09-17.41-8.37-21.48 6.73 4.67 8.86 14.38 4.59 23.35z" fill="#777" fill-rule="evenodd"/><g fill="#eee"><path d="m59.81 52.75c-.61 0-1.22 0-1.82-.06-8.25-.53-15.33-5-21.58-8.86l-1.06-.67c-8.51-5.3-21.6-7.08-30.23 1.55a3 3 0 0 1 -4.24-4.25c7.67-7.67 22.72-11.69 37.64-2.39l1.07.67c5.93 3.7 12 7.53 18.78 8a21.83 21.83 0 0 0 16.71-6 3 3 0 0 1 4.25 4.24 27.86 27.86 0 0 1 -19.52 7.77z" opacity=".6"/><path d="m59.81 67.37c-.61 0-1.22 0-1.82-.06-8.25-.53-15.33-5-21.58-8.86l-1.06-.67c-8.51-5.3-21.6-7.08-30.23 1.55a3 3 0 0 1 -4.24-4.25c7.67-7.67 22.72-11.69 37.64-2.39l1.07.67c5.93 3.7 12 7.53 18.78 8a21.85 21.85 0 0 0 16.71-6 3 3 0 1 1 4.25 4.24 27.86 27.86 0 0 1 -19.52 7.77z" opacity=".75"/><path d="m59.8 82c-.6 0-1.21 0-1.81-.06-8.24-.53-15.33-5-21.57-8.86l-1.07-.67c-8.51-5.31-21.6-7.09-30.23 1.59a3 3 0 0 1 -4.24-4.3c7.67-7.7 22.72-11.7 37.64-2.39l1.08.69c5.92 3.7 12 7.53 18.77 8a21.82 21.82 0 0 0 16.71-6 3 3 0 0 1 4.25 4.24 27.82 27.82 0 0 1 -19.53 7.76z" opacity=".9"/><circle cx="10.62" cy="42.73" opacity=".75" r="2"/><circle cx="23.64" cy="74.51" opacity=".75" r="2"/><circle cx="50.28" cy="58.51" opacity=".75" r="2"/><circle cx="72.86" cy="71.51" opacity=".75" r="2"/><circle cx="65.18" cy="36.67" opacity=".75" r="2"/></g></svg>