<svg height="80.77" viewBox="0 0 90.78 80.77" width="90.78" xmlns="http://www.w3.org/2000/svg"><path d="m71.86 18.36c-.56 0-1.11 0-1.67.07a18.87 18.87 0 0 0 -17.9-12.88 29.63 29.63 0 0 0 -3.27.2 23.37 23.37 0 0 0 -15.44-5.75c-12.43 0-22.58 8.86-24.71 21.34-5.37 3.43-8.87 9.13-8.87 14.71a17.88 17.88 0 0 0 18 17.67h53.86c10.26 0 18.92-8.09 18.92-17.67s-8.66-17.69-18.92-17.69z" fill="#999"/><path d="m83.55 44.05a23.36 23.36 0 0 1 -3.94 5.8 16.55 16.55 0 0 0 7.54-7.59c3.67-7.72.09-16.62-8-20.51 6.44 4.46 8.47 13.73 4.4 22.3z" fill="#777" fill-rule="evenodd"/><g fill="#00bcd4"><path d="m27.33 48.31c-.1 0-8.76 7.95-9.69 11.32a6.33 6.33 0 0 0 12.21 3.37c.93-3.38-2.42-14.66-2.52-14.69z"/><circle cx="19.57" cy="77.04" r="3.72"/></g></svg>