<svg height="91.12" viewBox="0 0 110.54 91.12" width="110.54" xmlns="http://www.w3.org/2000/svg"><path d="m83.68 34.48a21.15 21.15 0 0 0 .8-5.29l3.7-1.88 3.88-2-4.23-1-4-1a21 21 0 0 0 -2-4.95l2.23-3.36 2.36-3.6-4.19 1.19-4 1.15a21.34 21.34 0 0 0 -4.23-3.31l.21-4.06.19-4.27-3 3.09-2.93 2.94a21.84 21.84 0 0 0 -5.39-.74l-1.89-3.61-1.99-3.78-1.07 4.14-1 4a21.75 21.75 0 0 0 -5.07 2l-3.5-2.23-3.66-2.28 1.19 4.09 1.14 3.91a22.31 22.31 0 0 0 -3.39 4.19l-4.15-.16-4.35-.18 3.12 2.94 3 2.81a21.14 21.14 0 0 0 -.8 5.28l-3.7 1.89-3.87 2 4.22 1 4 1a21.22 21.22 0 0 0 2 4.95l-2.26 3.43-2.36 3.6 4.19-1.2 4-1.14a21.88 21.88 0 0 0 4.26 3.28l-.21 4.07-.21 4.26 3-3.08 2.89-2.94a21.9 21.9 0 0 0 5.39.74l1.9 3.61 2 3.78 1.1-4.2 1-4a22.3 22.3 0 0 0 5.06-2l3.49 2.18 3.66 2.28-1.21-4.02-1.1-3.92a22 22 0 0 0 3.38-4.2l4.16.17 4.35.18-3.13-2.94z" fill="#f3712d"/><path d="m81.34 28.85a18.78 18.78 0 1 1 -18.78-19 18.9 18.9 0 0 1 18.78 19z" fill="#ffc82c"/><path d="m60.13 14.45a21.36 21.36 0 0 0 -15.13 13.3 18.58 18.58 0 0 1 13.8-16.2 18.13 18.13 0 0 1 17.3 5 21.54 21.54 0 0 0 -15.97-2.1z" fill="#ffd74b" fill-rule="evenodd"/><path d="m72.19 28.14c-.56 0-1.12 0-1.68.07a19 19 0 0 0 -18-12.94 32.51 32.51 0 0 0 -3.28.2 23.56 23.56 0 0 0 -15.5-5.77c-12.48 0-22.65 8.9-24.82 21.43-5.4 3.45-8.91 9.18-8.91 14.78a18 18 0 0 0 18.12 17.75h54.07c10.3 0 19-8.13 19-17.75s-8.7-17.77-19-17.77z" fill="#ddd"/><path d="m84.12 54.35a23.38 23.38 0 0 1 -4 5.83 16.63 16.63 0 0 0 7.58-7.63c3.68-7.75.09-16.69-8-20.6 6.48 4.48 8.51 13.8 4.42 22.4z" fill="#ccc" fill-rule="evenodd"/><path d="m27.64 58.52c-.1 0-8.8 8-9.73 11.36a6.36 6.36 0 0 0 12.26 3.38c.93-3.39-2.43-14.72-2.53-14.74z" fill="#00bcd4"/><circle cx="19.85" cy="87.38" fill="#00bcd4" r="3.74"/><g fill="#eee"><path d="m90.14 61.38c-.6 0-1.21 0-1.82-.06-8.24-.53-15.32-5-21.57-8.86l-1.06-.66c-8.51-5.31-21.6-7.09-30.23 1.54a3 3 0 0 1 -4.24-4.24c7.67-7.67 22.72-11.69 37.64-2.39l1.07.66c5.93 3.71 12 7.53 18.78 8a21.84 21.84 0 0 0 16.71-6 3 3 0 0 1 4.25 4.25 27.86 27.86 0 0 1 -19.53 7.76z" opacity=".6"/><path d="m90.14 76c-.6 0-1.21 0-1.82-.06-8.24-.52-15.32-5-21.57-8.86l-1.06-.66c-8.51-5.3-21.6-7.09-30.23 1.54a3 3 0 1 1 -4.24-4.24c7.67-7.67 22.72-11.72 37.64-2.39l1.07.66c5.93 3.71 12 7.53 18.78 8a21.88 21.88 0 0 0 16.71-6 3 3 0 0 1 4.25 4.25 27.86 27.86 0 0 1 -19.53 7.76z" opacity=".75"/><path d="m90.14 90.62c-.6 0-1.21 0-1.82-.05-8.24-.57-15.32-4.96-21.56-8.87l-1.07-.7c-8.51-5.3-21.61-7.08-30.23 1.54a3 3 0 1 1 -4.24-4.24c7.66-7.63 22.72-11.65 37.64-2.3l1.08.67c5.92 3.7 12 7.53 18.77 8a21.88 21.88 0 0 0 16.71-6 3 3 0 0 1 4.25 4.25 27.86 27.86 0 0 1 -19.53 7.7z" opacity=".9"/><circle cx="40.96" cy="51.37" opacity=".75" r="2"/><circle cx="53.97" cy="83.14" opacity=".75" r="2"/><circle cx="80.62" cy="67.15" opacity=".75" r="2"/><circle cx="103.2" cy="80.14" opacity=".75" r="2"/><circle cx="95.52" cy="45.3" opacity=".75" r="2"/></g></svg>