<svg height="81.29" viewBox="0 0 110.42 81.29" width="110.42" xmlns="http://www.w3.org/2000/svg"><path d="m71.86 18.36c-.56 0-1.11 0-1.67.07a18.87 18.87 0 0 0 -17.9-12.88 29.63 29.63 0 0 0 -3.27.2 23.37 23.37 0 0 0 -15.44-5.75c-12.43 0-22.58 8.86-24.71 21.34-5.37 3.43-8.87 9.13-8.87 14.71a17.88 17.88 0 0 0 18 17.67h53.86c10.26 0 18.92-8.09 18.92-17.67s-8.66-17.69-18.92-17.69z" fill="#999"/><path d="m83.55 44.05a23.36 23.36 0 0 1 -3.94 5.8 16.55 16.55 0 0 0 7.54-7.59c3.67-7.72.09-16.62-8-20.51 6.44 4.46 8.47 13.73 4.4 22.3z" fill="#777" fill-rule="evenodd"/><path d="m27.33 48.31c-.1 0-8.76 7.95-9.69 11.32a6.33 6.33 0 0 0 12.21 3.37c.93-3.38-2.42-14.66-2.52-14.69z" fill="#00bcd4"/><circle cx="19.57" cy="77.04" fill="#00bcd4" r="3.72"/><g fill="#eee"><path d="m90 52.05c-.61 0-1.22 0-1.82-.06-8.24-.53-15.33-5-21.57-8.86l-1.07-.66c-8.49-5.31-21.54-7.09-30.21 1.53a3 3 0 0 1 -4.24-4.24c7.67-7.67 22.72-11.69 37.65-2.39l1.07.66c5.92 3.71 12 7.53 18.77 8a21.85 21.85 0 0 0 16.72-6 3 3 0 0 1 4.24 4.24 27.78 27.78 0 0 1 -19.54 7.78z" opacity=".6"/><path d="m90 66.67c-.61 0-1.22 0-1.82-.06-8.24-.53-15.33-5-21.57-8.86l-1.07-.66c-8.49-5.31-21.54-7.09-30.21 1.54a3 3 0 1 1 -4.24-4.24c7.67-7.67 22.72-11.69 37.65-2.39l1.07.66c5.92 3.71 12 7.53 18.77 8a21.9 21.9 0 0 0 16.72-6 3 3 0 0 1 4.24 4.24 27.78 27.78 0 0 1 -19.54 7.77z" opacity=".75"/><path d="m90 81.29c-.6 0-1.21 0-1.81-.06-8.24-.52-15.32-5-21.57-8.86l-1.07-.66c-8.51-5.3-21.6-7.08-30.23 1.54a3 3 0 0 1 -4.23-4.25c7.67-7.67 22.72-11.69 37.65-2.4l1.07.68c5.92 3.7 12 7.52 18.77 8a21.9 21.9 0 0 0 16.72-6 3 3 0 1 1 4.24 4.24 27.79 27.79 0 0 1 -19.54 7.77z" opacity=".9"/><circle cx="40.84" cy="42.04" opacity=".75" r="2"/><circle cx="53.85" cy="73.81" opacity=".75" r="2"/><circle cx="80.49" cy="57.82" opacity=".75" r="2"/><circle cx="103.07" cy="70.81" opacity=".75" r="2"/><circle cx="95.4" cy="35.97" opacity=".75" r="2"/></g></svg>