<svg height="79.76" viewBox="0 0 110.37 79.76" width="110.37" xmlns="http://www.w3.org/2000/svg"><path d="m72.38 18.5c-.57 0-1.13 0-1.69.06a19 19 0 0 0 -18-13 29.79 29.79 0 0 0 -3.28.2 23.63 23.63 0 0 0 -15.59-5.76c-12.52 0-22.71 8.93-24.89 21.49-5.41 3.45-8.93 9.2-8.93 14.81a18 18 0 0 0 18.17 17.81h54.21c10.32 0 19.05-8.11 19.05-17.81s-8.73-17.8-19.05-17.8z" fill="#ddd"/><path d="m84.34 44.77a23.2 23.2 0 0 1 -4 5.84 16.67 16.67 0 0 0 7.66-7.61c3.7-7.77.09-16.74-8-20.66 6.4 4.47 8.44 13.8 4.34 22.43z" fill="#ccc" fill-rule="evenodd"/><g fill="#eee"><path d="m90 50.52c-.61 0-1.21 0-1.82-.06-8.24-.53-15.32-5-21.57-8.86l-1.07-.66c-8.51-5.31-21.6-7.09-30.23 1.54a3 3 0 1 1 -4.31-4.24c7.67-7.67 22.72-11.69 37.65-2.4l1.07.67c5.92 3.7 12 7.53 18.77 8a21.85 21.85 0 0 0 16.72-6 3 3 0 1 1 4.24 4.24 27.78 27.78 0 0 1 -19.45 7.77z" opacity=".6"/><path d="m90 65.14c-.61 0-1.21 0-1.82-.06-8.24-.53-15.32-4.95-21.57-8.86l-1.07-.66c-8.54-5.31-21.63-7.09-30.26 1.54a3 3 0 1 1 -4.28-4.24c7.67-7.67 22.72-11.69 37.65-2.4l1.07.67c5.92 3.7 12 7.53 18.77 8a21.85 21.85 0 0 0 16.72-6 3 3 0 1 1 4.24 4.24 27.78 27.78 0 0 1 -19.45 7.77z" opacity=".75"/><path d="m90 79.76c-.61 0-1.21 0-1.82-.06-8.24-.53-15.32-5-21.57-8.86l-1.07-.66c-8.51-5.31-21.6-7.09-30.23 1.54a3 3 0 0 1 -4.31-4.24c7.67-7.67 22.72-11.69 37.65-2.4l1.07.67c5.92 3.71 12 7.53 18.77 8a21.85 21.85 0 0 0 16.72-6 3 3 0 1 1 4.24 4.24 27.78 27.78 0 0 1 -19.45 7.77z" opacity=".9"/><circle cx="40.79" cy="40.51" opacity=".75" r="2"/><circle cx="53.8" cy="72.28" opacity=".75" r="2"/><circle cx="80.44" cy="56.29" opacity=".75" r="2"/><circle cx="103.02" cy="69.28" opacity=".75" r="2"/><circle cx="95.35" cy="34.44" opacity=".75" r="2"/></g><path d="m26.85 46.86c-.07 0-5.67 5.13-6.27 7.31a4.1 4.1 0 1 0 7.9 2.18c.6-2.18-1.57-9.48-1.63-9.49z" fill="#00bcd4"/><path d="m41.62 64.82c-.06 0-5.66 5.14-6.26 7.32a4.09 4.09 0 1 0 7.89 2.18c.61-2.18-1.56-9.48-1.63-9.5z" fill="#00bcd4"/><path d="m60.14 53.11c-.07 0-5.67 5.14-6.27 7.32a4.1 4.1 0 1 0 7.9 2.17c.6-2.18-1.57-9.47-1.63-9.49z" fill="#00bcd4"/></svg>