<svg height="83.27" viewBox="0 0 108.2 83.27" width="108.2" xmlns="http://www.w3.org/2000/svg"><path d="m75.26 19.23c-.58 0-1.17 0-1.75.07a19.78 19.78 0 0 0 -18.75-13.49 32.79 32.79 0 0 0 -3.42.19 24.52 24.52 0 0 0 -16.17-6c-13 0-23.62 9.28-25.88 22.35-5.63 3.59-9.29 9.56-9.29 15.4a18.73 18.73 0 0 0 18.9 18.51h56.36c10.74 0 19.81-8.47 19.81-18.51s-9.07-18.52-19.81-18.52z" fill="#999"/><path d="m87.5 46.13a24.27 24.27 0 0 1 -4.13 6.07 17.27 17.27 0 0 0 7.9-7.94c3.84-8.08.09-17.41-8.36-21.48 6.72 4.67 8.85 14.38 4.59 23.35z" fill="#777" fill-rule="evenodd"/><g fill="#eee"><path d="m87.8 53c-.6 0-1.21 0-1.82-.06-8.24-.53-15.32-5-21.57-8.86l-1.06-.66c-8.52-5.31-21.61-7.09-30.23 1.54a3 3 0 0 1 -4.24-4.25c7.66-7.71 22.72-11.71 37.64-2.42l1.07.67c5.92 3.7 12 7.53 18.78 8a21.83 21.83 0 0 0 16.71-6 3 3 0 0 1 4.24 4.24 27.82 27.82 0 0 1 -19.52 7.8z" opacity=".6"/><path d="m87.8 67.59c-.6 0-1.21 0-1.82-.06-8.24-.53-15.32-5-21.57-8.86l-1.06-.67c-8.52-5.31-21.61-7.09-30.23 1.54a3 3 0 0 1 -4.24-4.25c7.66-7.67 22.72-11.69 37.64-2.39l1.07.67c5.92 3.7 12 7.53 18.78 8a21.88 21.88 0 0 0 16.71-6 3 3 0 0 1 4.24 4.24 27.82 27.82 0 0 1 -19.52 7.78z" opacity=".75"/><path d="m87.8 82.21c-.61 0-1.21 0-1.82-.06-8.24-.53-15.32-5-21.57-8.86l-1.06-.66c-8.52-5.31-21.61-7.09-30.23 1.54a3 3 0 0 1 -4.24-4.25c7.66-7.67 22.71-11.68 37.64-2.39l1.07.67c5.93 3.7 12 7.53 18.78 8a21.84 21.84 0 0 0 16.71-6 3 3 0 0 1 4.24 4.24 27.78 27.78 0 0 1 -19.52 7.77z" opacity=".9"/><circle cx="38.62" cy="42.96" opacity=".75" r="2"/><circle cx="51.63" cy="74.73" opacity=".75" r="2"/><circle cx="78.28" cy="58.73" opacity=".75" r="2"/><circle cx="100.86" cy="71.73" opacity=".75" r="2"/><circle cx="93.18" cy="36.89" opacity=".75" r="2"/></g><path d="m23.4 68.46a3.87 3.87 0 0 1 -4.62 2.79 3.85 3.85 0 0 1 -2.6-4.72c1.1-4.13 8.94-18.94 8.94-18.94s-.46 16.15-1.72 20.87z" fill="#00bcd4"/><path d="m36.69 80.2a3.74 3.74 0 1 1 -7.22-1.93c1.1-4.13 8.94-18.94 8.94-18.94s-.41 16.15-1.72 20.87z" fill="#00bcd4"/><path d="m55.59 68.46a3.74 3.74 0 1 1 -7.22-1.93c1.1-4.13 8.94-18.94 8.94-18.94s-.46 16.15-1.72 20.87z" fill="#00bcd4"/><path d="m69.53 80.35a3.74 3.74 0 1 1 -7.22-1.93c1.11-4.13 8.94-18.94 8.94-18.94s-.45 16.15-1.72 20.87z" fill="#00bcd4"/></svg>