<svg height="82.72" viewBox="0 0 107.85 82.72" width="107.85" xmlns="http://www.w3.org/2000/svg"><path d="m75.26 19.23c-.58 0-1.17 0-1.75.07a19.78 19.78 0 0 0 -18.75-13.49 32.79 32.79 0 0 0 -3.42.19 24.52 24.52 0 0 0 -16.17-6c-13 0-23.62 9.28-25.88 22.35-5.63 3.59-9.29 9.56-9.29 15.4a18.73 18.73 0 0 0 18.9 18.51h56.36c10.74 0 19.81-8.47 19.81-18.51s-9.07-18.52-19.81-18.52z" fill="#999"/><path d="m87.5 46.13a24.27 24.27 0 0 1 -4.13 6.07 17.27 17.27 0 0 0 7.9-7.94c3.84-8.08.09-17.41-8.36-21.48 6.72 4.67 8.85 14.38 4.59 23.35z" fill="#777" fill-rule="evenodd"/><g fill="#eee"><path d="m87.45 53.38c-.6 0-1.21 0-1.82-.06-8.24-.53-15.32-5-21.57-8.86l-1.06-.67c-8.51-5.3-21.6-7.08-30.23 1.54a3 3 0 0 1 -4.24-4.24c7.67-7.67 22.72-11.69 37.64-2.39l1.07.67c5.93 3.7 12.05 7.53 18.78 8a21.83 21.83 0 0 0 16.71-6 3 3 0 1 1 4.27 4.19 27.86 27.86 0 0 1 -19.55 7.82z" opacity=".6"/><path d="m87.45 68c-.6 0-1.21 0-1.82-.06-8.24-.53-15.32-5-21.57-8.86l-1.06-.67c-8.51-5.3-21.6-7.08-30.23 1.54a3 3 0 0 1 -4.24-4.24c7.67-7.71 22.72-11.71 37.64-2.39l1.07.67c5.93 3.7 12.05 7.53 18.78 8a21.87 21.87 0 0 0 16.71-6 3 3 0 0 1 4.27 4.19 27.86 27.86 0 0 1 -19.55 7.82z" opacity=".75"/><path d="m87.45 82.62c-.6 0-1.21 0-1.82-.06-8.24-.53-15.32-5-21.56-8.86l-1.07-.7c-8.51-5.3-21.61-7.08-30.23 1.54a3 3 0 0 1 -4.24-4.24c7.67-7.67 22.72-11.69 37.64-2.39l1.08.67c5.92 3.7 12 7.53 18.77 8a21.83 21.83 0 0 0 16.71-6 3 3 0 0 1 4.27 4.22 27.86 27.86 0 0 1 -19.55 7.82z" opacity=".9"/><circle cx="38.27" cy="43.36" opacity=".75" r="2"/><circle cx="51.28" cy="75.14" opacity=".75" r="2"/><circle cx="77.93" cy="59.14" opacity=".75" r="2"/><circle cx="100.51" cy="72.14" opacity=".75" r="2"/><circle cx="92.83" cy="37.29" opacity=".75" r="2"/></g><path d="m16.35 67.92a3.87 3.87 0 0 1 -4.62 2.79 3.87 3.87 0 0 1 -2.6-4.71c1.11-4.13 8.95-18.94 8.95-18.94s-.46 16.13-1.73 20.86z" fill="#00bcd4"/><path d="m26.64 79.66a3.85 3.85 0 0 1 -4.64 2.79 3.87 3.87 0 0 1 -2.61-4.72c1.11-4.13 9-18.94 9-18.94s-.48 16.14-1.75 20.87z" fill="#00bcd4"/><path d="m42.54 67.92a3.74 3.74 0 1 1 -7.22-1.92c1.11-4.13 9-18.94 9-18.94s-.51 16.13-1.78 20.86z" fill="#00bcd4"/><path d="m53.49 79.81a3.74 3.74 0 1 1 -7.22-1.93c1.1-4.13 8.94-18.94 8.94-18.94s-.46 16.15-1.72 20.87z" fill="#00bcd4"/><path d="m63.99 52.42h13.79l-5.61 9.22h5.79l-11.88 15.33 2.36-9.13h-11.11z" fill="#ffe41f"/></svg>