<?xml version="1.0" encoding="utf-8"?>
<!-- Generator: Adobe Illustrator 23.0.3, SVG Export Plug-In . SVG Version: 6.00 Build 0)  -->
<svg version="1.1" id="Layer_1" xmlns="http://www.w3.org/2000/svg" xmlns:xlink="http://www.w3.org/1999/xlink" x="0px" y="0px"
	 viewBox="0 0 595.28 595.28" style="enable-background:new 0 0 595.28 595.28;" xml:space="preserve">
<style type="text/css">
	.st0{fill:#182A4C;}
	.st1{fill:#4A3841;}
	.st2{fill:#002F1F;}
</style>
<path class="st0" d="M69.39,217.69c8.41-24.42,20.76-47.38,36.75-68.09c1.18-1.53,3.03-2.42,4.96-2.42h0.17
	c5.21,0,8.19,5.98,5.01,10.11c-14.88,19.3-26.75,41.04-34.87,64.51c-0.87,2.51-3.24,4.2-5.9,4.2h-0.2
	C71,226,67.99,221.76,69.39,217.69z M154.06,473.59c-31.57-25.43-56.24-59.11-70.71-97.72c-0.92-2.45-3.27-4.06-5.89-4.06h-0.13
	c-4.39,0-7.45,4.38-5.91,8.5c11.88,31.85,30.57,61.06,55.33,85.82c6.22,6.22,12.72,12.04,19.47,17.48
	c4.11,3.31,10.22,0.34,10.22-4.93v-0.16C156.44,476.6,155.55,474.79,154.06,473.59z M477.23,157.34
	c24.49,31.77,40.78,70.17,45.71,111.99c0.37,3.15,3.03,5.53,6.21,5.53h0.13c3.72,0,6.65-3.24,6.22-6.94
	c-5.03-43.26-21.58-83.91-48.17-118.33c-1.18-1.53-3.02-2.42-4.96-2.42h-0.17C476.96,147.18,474.03,153.19,477.23,157.34z
	 M516.71,370.23h-0.13c-2.63,0-4.99,1.63-5.9,4.1c-15.86,43.24-44.46,80.37-81.24,106.83c-1.66,1.19-2.66,3.1-2.66,5.14v0.17
	c0,5.14,5.82,8.11,10,5.11c10.55-7.59,20.56-16.08,29.93-25.45c25.18-25.18,44.07-54.96,55.92-87.45
	C524.13,374.58,521.08,370.23,516.71,370.23z M85.39,99.29c-1.83-3.62-2.77-7.33-2.79-11.1c-0.02-3.76,0.7-7.17,2.16-10.21
	c1.46-3.03,3.34-5.91,5.64-8.61c2.29-2.69,4.81-4.77,7.5-6.22c2.69-1.45,7.69-3.37,7.69-3.37c0.25,0.34-5.99,15.6-2.91,23.32
	c2.81,7.03,15.67,13.38,16.93,12.21c2.83-2.61,2.4-27.46,7.16-39.71c3.25-8.36,7.22-18.08,15.7-22.51
	c4.63-2.42,10.24-3.34,16.2-2.84c5.96,0.5,9.33,1.97,9.86,4.01c1.42,5.5,1.06,12.72-0.35,20.6c-1.59,8.85-5.08,16.89-9,24.79
	c-3.99,8.06-15.43,16.72-17.33,20.97c-2.89,6.43,5.75,37.7,7.57,38.4c2,0.76,16.37-8.87,25.03-12.37
	c6.78-2.74,14.23-4.86,21.52-5.51c3.16-0.28,5.89,0.21,8.01,1.3c2.12,1.1,3.63,2.38,4.54,3.81c0.91,1.44,1.52,3.13,1.84,5.09
	c0.32,1.95,0.48,3.38,0.46,4.28c-0.02,0.9-0.09,2.25-0.15,2.29c-1.38,0.8-14.98-1.12-21.98,0.89c-11.94,3.43-23.38,8.82-33.32,15.47
	c-7.98,5.32-16.11,15.98-21.35,20.44c-1.18,1-4.4-0.1-6.9-2.84c-2.5-2.75-3.53-6.04-2.76-9.61c0.73-3.41,13.69-15.26,13.69-15.26
	c-0.07-0.25-6.27-1.74-8.14-4.13c-7.01-8.93-7.99-30.77-9.77-32.02c-1.6-1.13-14.01,1.54-20.42-0.16
	C93.29,109.01,88.42,105.28,85.39,99.29z M142.5,84.45c0.37,0.17,10.03-14.41,13.32-22.53c3.5-8.63,3.3-21.01,3.3-21.01
	C157.15,40.41,142.5,84.45,142.5,84.45z M201.57,106.08c-1.96-6.97-2.15-14.08-0.29-21.32c1.87-7.23,5.6-16.68,9.75-19.18
	c0.09-0.05,0.39-0.05,0.44-0.1c2.26-2.28,5.27-12.54,11.58-16.53c6.44-4.07,14.27-5.24,21.7-3.66c5.61,1.19,9.45,4.36,11.51,9.35
	c2.06,4.99,2.49,10.68,1.49,17.06c-1,6.38-5.77,19.83-5.77,19.83c0.37,0.46,9.08-2.36,13.54-4.79c0.83-0.45,1.75-1.08,2.68-1.79
	c0.17-2.68,0.51-5.37,1.05-8.06c1.35-6.71,2.89-12.57,4.57-17.58c1.69-5.01,3.44-10.55,5.16-11.96c1.78-1.46,7.31-0.99,11.83,0.55
	c4.51,1.54,6.87,4.93,5.99,8.1c-1.05,3.74-3.56,9.22-5.13,15.19c-1.57,5.97-2.45,11.87-2.73,17.66c-0.28,5.8,0.81,9.2,3.2,10.24
	c2.92,1.27,6.78-1.02,11.89-6.77c6.2-6.97,15.25-16.08,17.12-22.22c1.92-6.31,0-17.69,5.7-25.7c4.26-6,9.2-7.56,13.75-5.41
	c2.14,1.01,3.68,2.62,4.24,4.91c0.56,2.29,0.31,5.01-0.72,8.15c-1.03,3.14-2.62,6.5-4.71,10.09c-2.09,3.6-7,8.61-7.47,11.22
	c-0.63,3.49,8.34,8.33,14.66,11.28c2.27-3.58,4.82-7.15,7.69-10.68c4.36-5.38,8.58-9.8,12.57-13.27c3.99-3.47,7.63-6.57,9.24-6.81
	c2.09-0.31,6.02,2.22,8.82,5.04c2.8,2.82,2.95,7.16,0.47,9.6c-4.73,4.66-12.24,11.49-16.87,18.14c-6.49,9.32-8.54,15.3-6.76,17.68
	c1.72,2.3,7.14,0.82,16.82-4.1c2.9-1.48,6.7-3.85,10.18-6.05c1.27-1.66,2.53-3.27,3.73-4.81c6.74-8.67,14.66-19.08,24.15-24.16
	c0.7-0.38,2.04-0.09,3.79,0.81c1.75,0.9,3.52,1.98,5.31,3.23c1.78,1.25,3.2,2.91,4.25,4.98c1.04,2.06,1.47,5,0.65,6.1
	c-1.85,2.49-8.63,6.48-13.96,11.72c-5.34,5.24-13.19,15.15-13.19,15.15c0.03,0.03,17.67-12.52,26.86-17.01
	c8.88-4.35,19.58-9.82,29.48-9.06c3.61,0.28,7.69,3.32,11.47,8.56c3.78,5.23,3.97,9.68,1.75,10.6c-0.14,0.06-1.49,0.82-3.85,2.4
	c-2.37,1.58-4.41,3.01-6.14,4.27c-1.73,1.26-3.98,2.99-6.71,5.19c-2.73,2.21-5,4.23-6.83,6.04c-1.83,1.82-3.58,3.75-5.24,5.77
	c-1.67,2.03-2.77,3.88-3.32,5.54c-0.56,1.66-0.54,3.14,0.11,4.29c1,1.79,2.92,2.9,5.53,3.31c2.61,0.41,5.61,0.4,9.03-0.01
	c3.42-0.41,6.97-1.07,10.65-1.98c3.68-0.92,7.07-1.83,10.15-2.76c0.03-0.01,0.06-0.02,0.09-0.03c2.49-0.76,4.2,2.46,2.16,4.07
	c-0.08,0.07-0.17,0.13-0.25,0.19c-3.07,2.28-6.74,4.18-10.99,5.8c-4.25,1.62-8.85,3-13.79,4.2c-4.94,1.2-9.53,1.81-13.84,1.79
	c-4.3-0.02-8.12-0.62-11.52-1.86c-3.4-1.24-5.79-3.59-7.26-7.1c-1.61-3.83-1.99-8.01-1.02-12.56c0.97-4.55,2.79-8.69,5.56-12.38
	c2.77-3.69,5.72-7.12,8.85-10.27c3.12-3.15,5.94-5.51,8.41-7.09c1.51-1.01,2.27-1.51,3.8-2.51c-9.86,0.66-18.64,5.67-26.33,10.79
	c-10.69,7.12-20.67,19.73-29.45,26.02c-0.79,0.57-2.63,0.42-4.63-0.24c-1.99-0.66-3.92-2.4-5.87-5.22
	c-1.94-2.82-3.15-6.16-2.86-9.23c0.22-2.37,0.86-4.73,1.79-7.08c-2.84,2.05-5.8,4.03-8.9,5.93c-5.12,3.13-9.92,5.08-14.54,5.82
	c-4.62,0.74-9.07-0.17-12.57-2.92c-3.26-2.56-4.89-6.87-4.7-12.11c0.18-5.11,1.63-10.37,4.51-15.72c-1.29,0.15-2.59,0.16-3.81-0.06
	c-5.83-1.06-13.21-8.62-13.93-8.64c-3.12-0.08-18.96,23.37-31.23,31.56c-8.67,5.78-14.89,5.59-19.34-0.39
	c-3.06-4.11-5.25-9.49-6.12-16.17c-0.12-0.89-0.21-1.78-0.29-2.67c-1.7,1.07-3.61,2.01-5.76,2.8c-2.48,0.91-4.96,1.71-7.44,2.39
	c-2.48,0.68-6.47,0.85-7.67,1.71c-3.02,2.18-6.43,10.62-9.95,14.5c-3.52,3.89-7.33,6.54-11.55,8.02c-4.22,1.47-8.48,0.57-12.9-2.23
	C207.64,118.08,203.53,113.05,201.57,106.08z M231.06,81.37c1.46,3.72,3.83,6.52,6.5,8.45c0.63,0.45,1.85,1.18,2.06,1.09
	c1.46-0.63,3.49-8.68,4.4-13.18c0.91-4.51,1.11-8.85,0.5-13.04c-0.61-4.18-2.34-7.76-4.98-9.43c-3.13-1.97-6.52,0.09-8.56,5.5
	C228.4,67.61,228.42,74.61,231.06,81.37z M225.05,106.71c2.81,0.63,8.83-5.29,8.8-5.36c-0.28-0.68-12.76-5.9-12.76-5.9
	C220.51,95.68,222.08,106.04,225.05,106.71z M394.52,49.97c2.92-0.86,6.69-2.37,11.4-4.46c4.71-2.09,8.61-3.31,11.02-4.07
	c3.37-1.05,5.11-3.13,4.7-5.45c-0.4-2.32-1.96-4.64-4.72-6.92c-2.75-2.28-5.27-3.26-7.42-3.06c-2.3,0.22-5.08,1.27-8.19,3.27
	c-3.11,2-5.83,4.33-8.17,6.98c-2.34,2.65-4.08,5.24-5.25,7.76c-1.18,2.52-0.89,4.37,0.49,5.57
	C389.56,50.62,391.6,50.83,394.52,49.97z M24.83,247.92c0.02,0.62,0.03,1.02,0.03,1.22c0,0.18-0.01,0.46-0.03,0.84
	c-0.02,0.38-0.03,0.66-0.03,0.84v0.87c0,2.46-0.08,5.81-0.25,10.06c-0.17,4.25-0.26,7.02-0.28,8.32v7.24l1.34,0.94h1.88
	c0.54,0,1.28-0.01,2.23-0.03c0.95-0.02,1.68-0.03,2.2-0.03h2.68c0.18,0,0.45-0.01,0.81-0.03c0.36-0.02,0.63-0.03,0.8-0.03
	c0,0.18,1.43,0.27,4.29,0.27h2.15c0.09-0.02,0.17-0.04,0.25-0.05c0.08-0.01,0.14-0.03,0.2-0.05c0.06-0.02,0.11-0.05,0.17-0.08
	c0.06-0.03,0.1-0.06,0.13-0.07c0.03-0.01,0.06-0.04,0.08-0.1c0.02-0.06,0.04-0.09,0.07-0.12c0.02-0.02,0.04-0.07,0.07-0.13
	c0.02-0.07,0.03-0.11,0.03-0.13c0-0.02,0.01-0.08,0.03-0.17c0.02-0.09,0.03-0.15,0.03-0.17v-30.85h9.52c0.58,0,0.89-0.27,0.94-0.8
	v-10.73c0-0.4-0.05-0.71-0.13-0.92c-0.09-0.21-0.31-0.35-0.67-0.42H14.33v12.07c0,0.38,0.22,0.65,0.67,0.82
	c0.45,0.17,0.92,0.25,1.41,0.25h8.38C24.8,246.91,24.81,247.31,24.83,247.92z M58.06,278.12h4.43c1.16,0,2.87-0.02,5.11-0.07
	c2.25-0.04,3.89-0.07,4.95-0.07h1.54c0.51,0,0.9-0.06,1.16-0.17c0.26-0.11,0.43-0.37,0.52-0.77v-14.49
	c0.72-0.09,1.34-0.13,1.88-0.13h2.28c0.56,0,0.88,0.03,0.96,0.1c0.08,0.07,0.12,0.35,0.12,0.84v13.55c0.07,0.13,0.25,0.28,0.55,0.44
	c0.3,0.16,0.48,0.26,0.52,0.3v0.74h17.1c0.29,0,0.51-0.12,0.67-0.37c0.16-0.25,0.25-0.51,0.28-0.79c0.03-0.28,0.05-0.65,0.05-1.12
	v-41.24c0-0.71-0.12-1.2-0.37-1.44c-0.25-0.25-0.64-0.37-1.17-0.37h-17.1v14.75H75.7v-14.42H57.66c-0.02,0.02-0.13,0.11-0.34,0.25
	c-0.2,0.15-0.33,0.26-0.4,0.33c-0.07,0.08-0.1,0.17-0.1,0.28l-0.2,42.25C56.62,277.58,57.1,278.12,58.06,278.12z M140.28,246.33
	c0.07-0.07,0.19-0.16,0.37-0.28c0.18-0.12,0.29-0.2,0.32-0.23c0.03-0.03,0.08-0.1,0.13-0.2c0.06-0.1,0.09-0.22,0.12-0.35v-11.2
	c0-0.51-0.29-0.8-0.87-0.87h-8.92c-2.28,0-5.71,0.06-10.28,0.17c-4.57,0.11-7.99,0.17-10.24,0.17h-1.74
	c-0.13-0.04-0.38-0.07-0.74-0.07h-0.81c-0.45,0-0.77,0.16-0.97,0.47c-0.11,0.22-0.17,1.01-0.17,2.35v40.84l1.01,0.87h33.2
	c0.49-0.02,0.83-0.16,1.01-0.4c0.18-0.25,0.27-0.6,0.27-1.07v-10.73c-0.07-0.13-0.16-0.27-0.27-0.4c-0.31-0.27-1.05-0.4-2.21-0.4
	h-4.29c-0.87,0-2.29,0.03-4.26,0.1c-1.97,0.07-3.45,0.1-4.46,0.1c-0.18,0-0.45-0.01-0.8-0.03c-0.36-0.02-0.63-0.03-0.8-0.03v-4.29
	h5.36c1.21,0,2.82-0.06,4.84-0.17c2.02-0.11,3.45-0.17,4.28-0.17v0.07c0.16,0,0.27-0.04,0.33-0.13c0.07-0.09,0.16-0.27,0.27-0.54
	V259c0-0.36-0.02-0.78-0.07-1.27c-0.05-0.49-0.07-0.98-0.07-1.48v-0.94c0-0.2-0.01-0.44-0.03-0.72c-0.02-0.28-0.03-0.46-0.03-0.55
	v-1.27c0-0.11,0.02-0.3,0.07-0.57c0.04-0.27,0.07-0.46,0.07-0.57c0-0.45-0.11-0.79-0.34-1.04c-0.22-0.25-0.65-0.37-1.27-0.37
	c-1.43,0-3.48,0.05-6.14,0.13c-2.66,0.09-4.64,0.13-5.94,0.13h-1.48v-4.16H140.28z M92.77,337.75v-2.16
	c-0.11-1.52-0.8-2.28-2.05-2.28h-4.21c-1.06,0-2.64,0.02-4.73,0.06c-2.09,0.04-3.66,0.06-4.73,0.06c-1.52,0-3.8-0.02-6.83-0.06
	c-3.04-0.04-5.31-0.06-6.83-0.06c-0.61,0.61-1.15,1.76-1.62,3.47c-0.47,1.71-1.06,3.17-1.76,4.38c-0.7,1.22-1.77,1.82-3.22,1.82
	c-1.37,0-2.51-0.44-3.42-1.31c-0.91-0.87-1.55-2.01-1.91-3.42c-0.36-1.4-0.59-2.55-0.68-3.45c-0.1-0.89-0.14-1.81-0.14-2.76v-6.38
	c0-0.34,0-0.89,0-1.65c-0.08-1.1-0.09-2.27-0.03-3.5c0.06-1.23,0.13-2.45,0.23-3.64c0.09-1.2,0.3-2.33,0.63-3.42
	c0.32-1.08,0.74-2.03,1.25-2.85c0.51-0.82,1.21-1.47,2.11-1.96c0.89-0.49,1.93-0.74,3.1-0.74c1.33,0,2.45,0.53,3.36,1.59
	c0.91,1.06,1.46,2.24,1.65,3.53v4.9h24.37c0.95,0,1.69-0.03,2.22-0.09c0.53-0.06,1.02-0.23,1.48-0.51c0.46-0.28,0.74-0.69,0.85-1.22
	v-4.9c-0.38-2.73-1.02-5.28-1.94-7.63c-0.91-2.35-2.26-4.64-4.04-6.86c-1.78-2.22-3.93-4.11-6.43-5.67
	c-2.51-1.56-5.66-2.8-9.45-3.73c-3.8-0.93-8.05-1.39-12.75-1.39c-3.72,0-7.25,0.33-10.59,1c-3.34,0.67-6.6,1.73-9.79,3.19
	c-3.19,1.46-6.11,3.52-8.77,6.18c-2.66,2.66-4.86,5.81-6.61,9.45v-0.11c-0.34,0.68-0.65,1.35-0.91,1.99
	c-0.27,0.65-0.51,1.33-0.74,2.05c-0.23,0.72-0.43,1.34-0.6,1.85c-0.17,0.51-0.32,1.17-0.46,1.96c-0.13,0.8-0.24,1.4-0.31,1.82
	c-0.08,0.42-0.17,1.08-0.28,1.99c-0.11,0.91-0.18,1.53-0.2,1.85c-0.02,0.32-0.08,1.01-0.17,2.05c-0.1,1.04-0.16,1.7-0.2,1.96v0.8
	c0,6,0.84,11.53,2.53,16.6c1.69,5.07,4.15,9.5,7.37,13.3c3.23,3.8,7.36,6.77,12.41,8.91c5.05,2.15,10.74,3.22,17.08,3.22
	c3.83,0,7.02-0.26,9.57-0.8v-0.34c7.14-1.25,13.08-4.19,17.82-8.83C89.15,351.39,91.94,345.3,92.77,337.75z M177.38,363.94h-26.42
	c-0.65-0.08-1.06-0.13-1.25-0.17c-0.19-0.04-0.48-0.11-0.88-0.23c-0.4-0.11-0.68-0.27-0.85-0.46c-0.17-0.19-0.28-0.44-0.31-0.74
	l-2.16-8.65c-0.15-0.72-0.3-1.13-0.46-1.22c-0.15-0.09-0.61-0.14-1.37-0.14h-17.54c-0.27,0.87-0.52,2.02-0.77,3.45
	c-0.25,1.42-0.48,2.54-0.68,3.36c-0.21,0.82-0.56,1.67-1.05,2.56c-0.49,0.89-1.24,1.55-2.25,1.96c-1.01,0.42-2.31,0.63-3.9,0.63
	h-24.6v-1.94c2.01-6.04,4.94-15.3,8.8-27.78c3.85-12.49,6.84-21.94,8.97-28.35v0.11c1.29-3.68,3.19-9.45,5.69-17.31
	c0.04-0.08,0.09-0.17,0.17-0.28c0.34-0.57,0.66-1.01,0.97-1.31l30.75,0.23c5.24,0,8.12,0.46,8.65,1.37v1.48
	c0.08,0.34,0.49,1.22,1.25,2.62c3.68,11.27,6.38,19.47,8.09,24.6v0.68c0.15,1.1,0.49,2.35,1.02,3.76c0.53,1.4,1.17,2.91,1.91,4.53
	c0.74,1.61,1.26,2.87,1.57,3.79l2.28,8.2c1.33,4.4,3.28,10.29,5.86,17.65v1.03c0.11,0.53,0.4,1.25,0.85,2.16
	c0.46,0.91,0.74,1.56,0.85,1.94c0,1.06-0.22,1.75-0.65,2.05C179.48,363.79,178.63,363.94,177.38,363.94z M142.99,333.19
	c0-0.99-0.34-2.77-1.03-5.35v-1.25c-0.04-0.11-0.14-0.33-0.31-0.65c-0.17-0.32-0.26-0.56-0.26-0.71c-0.23-1.06-0.56-2.78-1-5.15
	c-0.44-2.37-0.86-4.44-1.28-6.21c-0.42-1.76-0.87-3.41-1.37-4.92v-2.73c-0.3-0.8-0.84-1.37-1.59-1.71v0.11
	c-0.91,0.19-1.82,2.73-2.73,7.63v2.73c-0.08,0.27-0.25,0.51-0.51,0.74c-0.27,0.23-0.4,0.36-0.4,0.4
	c-1.25,5.54-2.28,10.02-3.07,13.44c0,0.38-0.1,1.04-0.28,1.99c-0.19,0.95-0.28,1.5-0.28,1.65H142.99z M282.57,364.14
	c0.28-0.02,0.68-0.09,1.2-0.23c0.51-0.13,0.9-0.39,1.17-0.77c0.27-0.38,0.44-0.87,0.51-1.48v-67.07c0-4.48-0.53-6.72-1.59-6.72
	h-40.03l-8.88,34.79l-6.77-34.67c-0.15,0.04-0.52,0.09-1.11,0.14c-0.59,0.06-1.02,0.12-1.28,0.2h-5.81c-1.37,0-4.79-0.17-10.28-0.51
	c-5.48-0.34-10.14-0.51-13.98-0.51c-0.83,0.08-2.2,0.11-4.1,0.11h-5.24c-0.61,0.46-0.99,0.81-1.14,1.05
	c-0.15,0.25-0.23,0.62-0.23,1.11v20.15c0,2.05,0.02,5.76,0.06,11.13c0.04,5.37,0.06,9.67,0.06,12.9c0,10.7,0.15,19.7,0.46,26.99
	c0,0.08-0.06,0.49-0.17,1.25c-0.11,0.76-0.17,1.25-0.17,1.48h26.87v-10.02c0-12.34,0.27-24.03,0.8-35.07l2.05,9.79
	c1.37,6.57,3.83,17.76,7.4,33.59c0.23,0.91,0.61,1.52,1.14,1.82c0.53,0.3,1.4,0.46,2.62,0.46c0.23,0,0.8-0.02,1.71-0.06
	c0.91-0.04,1.56-0.06,1.94-0.06c1.29,0,3.18,0.04,5.67,0.11c2.49,0.08,4.51,0.11,6.06,0.11c3.19,0,5.09-0.53,5.69-1.59l3.42-14.58
	c0.53-2.24,1.56-5.66,3.07-10.25c1.33-4.04,2.29-7.17,2.86-9.39c-0.01,0.4-0.01,0.76-0.01,1.07c0,0.3,0.02,0.75,0.06,1.34
	c0.04,0.59,0.06,1.02,0.06,1.28v5.01c0,1.48-0.04,3.75-0.11,6.8c-0.08,3.06-0.11,5.53-0.11,7.43c0,7.55,0.95,11.92,2.85,13.1
	c2.43,0,6.08-0.04,10.96-0.11c4.88-0.08,8.51-0.11,10.9-0.11C281.8,364.16,282.29,364.16,282.57,364.14z M329.17,339.57
	c-0.23,0-0.42,0.04-0.57,0.11c0,9.94,0.15,17.46,0.45,22.55c-0.19,0.76-0.6,1.27-1.22,1.54c-0.63,0.27-1.7,0.4-3.22,0.4h-27.33
	l-1.2-37.92c0-2.62,0.04-5.58,0.11-8.88c0.08-3.3,0.17-6.28,0.28-8.94c0.11-2.66,0.22-5.67,0.31-9.05c0.09-3.38,0.14-6.45,0.14-9.22
	c0-0.76,0.26-1.24,0.77-1.45c0.51-0.21,1.16-0.27,1.94-0.2c0.78,0.08,1.66,0.02,2.65-0.17h40.77c2.32,0,4.63,0.29,6.95,0.88
	c2.31,0.59,4.58,1.54,6.8,2.85c2.22,1.31,4.17,2.9,5.86,4.78c1.69,1.88,3.06,4.22,4.1,7.03c1.04,2.81,1.57,5.9,1.57,9.28
	c0,4.48-0.95,8.45-2.85,11.93c-1.9,3.47-4.75,6.75-8.54,9.82c-4.67,2.43-10.29,3.83-16.85,4.21h-1.82c-1.52,0.3-3.04,0.46-4.56,0.46
	H329.17z M336.38,320.21c2.33-1.52,3.5-3.87,3.5-7.06c0-1.44-0.25-2.68-0.74-3.7c-0.49-1.03-1.09-1.81-1.79-2.36
	c-0.7-0.55-1.65-0.97-2.85-1.25c-1.2-0.28-2.29-0.46-3.27-0.54c-0.99-0.08-2.24-0.11-3.76-0.11c-0.04,0.04-0.19,0.17-0.46,0.4
	c-0.27,0.23-0.46,0.4-0.57,0.51v5.92c-0.46,3.64-0.68,6.53-0.68,8.65v1.02c0.04,0.04,0.29,0.16,0.77,0.37
	c0.33,0.14,0.53,0.25,0.63,0.33c0.1,0.06,0.31,0.09,0.65,0.09C331.19,322.49,334.04,321.73,336.38,320.21z M373.24,289.46v74.81
	h31.2c0.38,0,0.65-0.14,0.83-0.43c0.17-0.28,0.35-0.83,0.54-1.62V288.1h-30.63c-0.11,0.11-0.46,0.29-1.03,0.54
	C373.58,288.89,373.28,289.16,373.24,289.46z M496.53,307.46c0-0.42,0.03-1.46,0.08-3.13c0.06-1.67,0.1-3.3,0.14-4.9
	c0.04-1.59,0.04-41.32,0-43.07c-0.04-1.75-0.18-3.2-0.43-4.36c-0.25-1.16-0.6-1.81-1.05-1.96h-19.47c-1.75,0-3.04,0.08-3.87,0.23
	c-0.83,0.15-1.25,0.53-1.25,1.14c0,5.62-0.38,53.16-1.14,66.52v8.43c-0.76-2.13-2.11-5.99-4.04-11.59
	c-1.94-5.6-3.61-10.37-5.01-14.32c-1.4-3.95-2.79-7.76-4.16-11.44l-0.06-0.4c-0.08-0.34-0.46-0.65-1.14-0.91
	c-0.08-0.04-0.13-0.06-0.17-0.06h-9.57c-2.77,0-6.92,0.08-12.44,0.23c-5.52,0.15-9.58,0.23-12.16,0.23v-0.23
	c-0.53,0-0.99,0.68-1.37,2.05v12.3c-0.19,6.45-0.34,16.4-0.46,29.84c-0.11,13.44-0.27,23.31-0.46,29.61l2.51,2.51h23.46
	c1.14-0.26,1.84-0.62,2.11-1.05c0.27-0.44,0.4-1.22,0.4-2.36v-11.62c0.11-2.47,0.23-6.18,0.34-11.13c0.11-4.95,0.23-8.68,0.34-11.19
	c0.99,3.26,2.09,6.63,3.3,10.11c1.21,3.47,2.67,7.51,4.36,12.1c1.69,4.59,2.89,7.9,3.62,9.91c1.06,3.04,1.94,4.63,2.62,4.78h31.88
	c1.97,0,3.04-0.65,3.19-1.94v-20.72c0-2.2-0.04-5.62-0.11-10.25c-0.08-4.63-0.11-8.27-0.11-10.93v-6.04
	C496.42,311.1,496.45,308.97,496.53,307.46z M570.7,319.07h-5.47c-1.82,0-4.63-0.08-8.43-0.23h-5.12c-0.76-0.15-1.33-0.23-1.71-0.23
	h-5.35c-0.76,0.46-1.27,0.89-1.54,1.31c-0.27,0.42-0.4,0.97-0.4,1.65v0.46c0,0.23-0.02,0.48-0.06,0.74
	c-0.04,0.27-0.06,0.44-0.06,0.51v1.59c0,0.61-0.02,1.39-0.06,2.33c-0.04,0.95-0.06,1.65-0.06,2.11v3.53c0,0.76,0.04,1.33,0.11,1.71
	l1.94,2.16h4.78c0.15,0,0.46-0.02,0.91-0.06c0.46-0.04,0.83-0.06,1.14-0.06h2.16c0,0.23-0.02,0.49-0.06,0.8
	c-0.04,0.3-0.06,0.49-0.06,0.57c0,0.3,0.02,0.7,0.06,1.2c0.04,0.49,0.06,0.89,0.06,1.2v2.5c-2.13,0.68-5.05,1.03-8.77,1.03
	c-1.79,0-3.32-0.28-4.61-0.85c-1.29-0.57-2.28-1.27-2.96-2.11c-0.68-0.83-1.22-1.9-1.59-3.19c-0.38-1.29-0.62-2.45-0.71-3.47
	c-0.1-1.03-0.14-2.22-0.14-3.59v-4.33c0-0.3-0.02-0.93-0.06-1.88c-0.04-0.95-0.06-1.69-0.06-2.22c0-1.56,0.05-2.94,0.14-4.16
	c0.09-1.21,0.32-2.55,0.68-4.01c0.36-1.46,0.84-2.68,1.45-3.64c0.61-0.97,1.49-1.78,2.65-2.45c1.16-0.66,2.51-1,4.07-1
	c2.35,0,3.87,0.76,4.56,2.28v-0.11c0.11,0.15,0.39,0.73,0.83,1.74c0.44,1.01,0.92,1.6,1.45,1.79h6.26c1.94,0,4.54,0.06,7.83,0.17
	c3.28,0.11,5.46,0.17,6.52,0.17h4.67c2.43,0,3.64-0.65,3.64-1.94c-0.23-0.99-0.52-2.51-0.88-4.58c-0.36-2.07-0.75-3.76-1.17-5.07
	c-0.42-1.31-1.02-2.5-1.82-3.56c-1.59-2.2-3.74-4.14-6.43-5.81c-2.7-1.67-5.55-2.93-8.57-3.79c-3.02-0.85-5.86-1.48-8.54-1.88
	c-2.68-0.4-5.15-0.6-7.43-0.6c-15.71,0-26.99,4.37-33.82,13.1v0.68l-1.59,1.94c-4.78,6.64-7.17,14.69-7.17,24.14
	c0,9.53,2.28,17.88,6.83,25.05l1.82,2.39c0.65,0.91,1.29,1.59,1.94,2.05l2.39,2.05c2.43,1.9,5.03,3.46,7.8,4.7
	c2.77,1.23,5.67,2.11,8.68,2.62c3.02,0.51,5.62,0.85,7.8,1c2.18,0.15,4.75,0.23,7.72,0.23c2.81,0,6.61-0.23,11.42-0.68
	c4.8-0.46,9.62-1.24,14.46-2.36c4.84-1.12,7.41-2.38,7.71-3.79v-5.01c0-3.64,0.08-9.18,0.23-16.63c0.15-7.44,0.23-12.98,0.23-16.63
	C579.88,319.6,576.47,319.07,570.7,319.07z M129.11,385.48h-0.14c-4.67,0-7.46,5.18-4.92,9.1c11.39,17.56,25.38,33.28,41.42,46.62
	v-16.63c-11.83-10.81-22.4-23.05-31.47-36.47C132.89,386.47,131.07,385.48,129.11,385.48z M465.15,385.46
	c-1.97,0-3.79,0.99-4.89,2.62c-10.18,15.06-22.27,28.65-35.88,40.39v16.28c17.9-14.07,33.41-31.03,45.83-50.19
	c2.54-3.92-0.25-9.1-4.92-9.1H465.15z M447.12,278.8H154.61c-2.69,0-4.88-2.18-4.88-4.88v-0.1c0-2.69,2.18-4.88,4.88-4.88h8.46
	c1.82-2.32,3.52-4.72,5.09-7.22c1.1-1.75-0.16-4.02-2.22-4.01c-1.58,0.01-3.16,0.01-4.74,0.02c-1.69,0.01-2.56-2.03-1.38-3.24
	c4.36-4.47,8.12-9.52,11.15-14.98c0.99-1.78-0.24-3.99-2.28-4.05c-0.88-0.03-1.77-0.05-2.65-0.08c-1.91-0.06-2.92-2.27-1.73-3.77
	c6.81-8.63,12.34-18.26,16.39-28.48c0.28-0.71,0.96-1.18,1.73-1.18h0.03c0.77,0,1.45,0.47,1.73,1.18
	c4.05,10.22,9.58,19.85,16.39,28.48c1.19,1.5,0.18,3.71-1.73,3.77c-0.88,0.03-1.77,0.05-2.65,0.08c-2.04,0.06-3.27,2.26-2.28,4.05
	c3.03,5.46,6.79,10.51,11.15,14.98c1.18,1.21,0.32,3.25-1.38,3.24c-1.58-0.01-3.16-0.01-4.74-0.02c-2.07-0.01-3.32,2.27-2.22,4.01
	c1.57,2.49,3.27,4.9,5.09,7.22h9.3c3.07-3.71,5.92-7.62,8.48-11.7c1.43-2.27-0.21-5.23-2.89-5.22c-2.05,0.01-4.11,0.02-6.16,0.03
	c-2.2,0.01-3.33-2.64-1.79-4.22c5.67-5.81,10.56-12.39,14.51-19.49c1.29-2.32-0.32-5.19-2.97-5.27c-1.15-0.03-2.3-0.07-3.45-0.1
	c-2.49-0.08-3.8-2.95-2.26-4.9c8.86-11.22,16.05-23.75,21.32-37.05c0.37-0.93,1.25-1.54,2.25-1.54h0.03c1,0,1.88,0.61,2.25,1.54
	c5.26,13.3,12.46,25.82,21.32,37.05c1.54,1.95,0.23,4.82-2.26,4.9c-1.15,0.03-2.3,0.07-3.45,0.1c-2.65,0.08-4.26,2.95-2.97,5.27
	c2.54,4.58,5.49,8.94,8.78,13.02c14.02-25.15,25.19-49.36,33.44-72.82l-11.96-20.39l9.09-4.43l6.26,12.26l6.35-12.26l9.22,5.19
	l-10.26,20.01c9.74,26.36,20.02,50.03,32.58,72.83c3.42-4.19,6.47-8.68,9.09-13.4c1.29-2.32-0.32-5.19-2.97-5.27
	c-1.15-0.03-2.3-0.07-3.45-0.1c-2.49-0.08-3.8-2.95-2.26-4.9c8.86-11.22,16.05-23.75,21.32-37.05c0.37-0.93,1.25-1.54,2.25-1.54
	h0.03c1,0,1.88,0.61,2.25,1.54c5.26,13.3,12.46,25.82,21.32,37.05c1.54,1.95,0.23,4.82-2.26,4.9c-1.15,0.03-2.3,0.07-3.45,0.1
	c-2.65,0.08-4.26,2.95-2.97,5.27c3.94,7.1,8.83,13.68,14.51,19.49c1.54,1.58,0.41,4.23-1.79,4.22c-2.05-0.01-4.11-0.02-6.16-0.03
	c-2.69-0.01-4.32,2.95-2.89,5.22c2.57,4.08,5.41,7.99,8.48,11.7h9.3c1.82-2.32,3.52-4.72,5.09-7.22c1.1-1.75-0.16-4.02-2.22-4.01
	c-1.58,0.01-3.16,0.01-4.74,0.02c-1.69,0.01-2.56-2.03-1.38-3.24c4.36-4.47,8.12-9.52,11.15-14.98c0.99-1.78-0.24-3.99-2.28-4.05
	c-0.88-0.03-1.77-0.05-2.65-0.08c-1.91-0.06-2.92-2.26-1.73-3.77c6.81-8.63,12.34-18.26,16.39-28.48c0.28-0.71,0.96-1.18,1.73-1.18
	h0.03c0.77,0,1.45,0.47,1.73,1.18c4.05,10.22,9.58,19.85,16.39,28.48c1.19,1.5,0.18,3.71-1.73,3.77c-0.88,0.03-1.77,0.05-2.65,0.08
	c-2.04,0.06-3.27,2.26-2.28,4.05c3.03,5.46,6.79,10.51,11.15,14.98c1.18,1.21,0.32,3.25-1.38,3.24c-1.58-0.01-3.16-0.01-4.74-0.02
	c-2.06-0.01-3.32,2.27-2.22,4.01c1.57,2.49,3.27,4.9,5.09,7.22h11.52c2.69,0,4.88,2.18,4.88,4.88v0.1
	C452,276.62,449.82,278.8,447.12,278.8z M284.98,268.95h27.43l-13.71-62.53L284.98,268.95z M492.77,197.29
	c0.32-0.68-0.04-1.47-0.39-2.14c-1.43-2.72-4.36-5.09-6.3-7.69c-0.64-0.86-1.86-1.02-2.69-0.34c-6.96,5.68-12.3,10.99-19.53,16.72
	c-0.51,0.41-1.03,0.82-1.52,1.26c-37.59-50.3-97.59-82.88-165.21-82.87c-67.74,0-127.83,32.69-165.4,83.14
	c-0.58-0.54-1.2-1.04-1.82-1.53c-7.23-5.74-12.57-11.05-19.53-16.72c-0.83-0.68-2.05-0.52-2.69,0.34c-1.94,2.6-4.87,4.98-6.3,7.69
	c-0.35,0.67-0.71,1.46-0.39,2.14c0.23,0.5,0.76,0.78,1.25,1.03c8.44,4.27,16.89,8.53,25.33,12.8c-1.2,1.74-2.38,3.49-3.53,5.26
	c-2.54,3.92,0.25,9.1,4.92,9.1h0.14c1.97,0,3.79-0.99,4.89-2.62c13.17-19.47,29.51-36.46,48.23-50.2
	c8.58,5.57,17.16,11.15,25.73,16.72c0.53,0.35,1.13,0.71,1.76,0.63c0.9-0.11,1.47-1.12,1.42-2.03c-0.05-0.91-0.54-1.73-1.01-2.5
	c-4.58-7.44-9.15-14.87-13.73-22.31c14.19-8.64,29.49-15.53,45.65-20.34c4.14,8.68,8.29,17.35,12.43,26.03
	c0.78,1.63,1.95,3.52,3.76,3.47c1.37-0.04,2.47-1.3,2.78-2.63c0.31-1.34,0.03-2.73-0.25-4.08c-1.83-8.73-3.66-17.47-5.49-26.2
	c13.49-2.99,27.49-4.58,41.84-4.58c14.19,0,28.03,1.55,41.38,4.48c-1.84,8.77-3.68,17.54-5.51,26.31c-0.28,1.34-0.56,2.74-0.25,4.08
	c0.31,1.34,1.41,2.6,2.78,2.63c1.81,0.05,2.98-1.84,3.76-3.47c4.16-8.72,8.33-17.44,12.49-26.16c16.18,4.77,31.51,11.63,45.73,20.25
	c-4.62,7.51-9.24,15.02-13.86,22.54c-0.48,0.77-0.97,1.59-1.01,2.5c-0.05,0.91,0.52,1.92,1.42,2.03c0.63,0.08,1.23-0.28,1.76-0.63
	c8.67-5.63,17.34-11.26,26-16.9c18.82,13.77,35.24,30.81,48.46,50.36c1.1,1.63,2.92,2.62,4.89,2.62l0.14,0
	c4.67,0,7.46-5.18,4.92-9.1c-1.19-1.83-2.41-3.64-3.65-5.43c8.32-4.2,16.64-8.41,24.96-12.61
	C492.01,198.07,492.54,197.79,492.77,197.29z M263.99,410.94c1.58,1.06,3.65,0.57,6.22-1.48c2.57-2.04,5.7-5.23,9.41-9.54
	c3.71-4.32,6.64-7.38,8.82-9.2c2.74-3.03,3.45-5.91,2.15-8.63c-1.31-2.73-3.65-5-7.03-6.82c-3.38-1.82-6.03-2.19-7.93-1.14
	c-2.07,1.06-4.2,3.37-6.39,6.93c-2.19,3.56-3.95,7.38-5.27,11.47c-1.32,4.09-2.13,7.92-2.41,11.47
	C261.26,407.57,262.07,409.88,263.99,410.94z M412.99,462.06c-1.05,3.33-3.4,7.08-7.03,11.25c-3.64,4.17-7.76,8.03-12.35,11.59
	c-4.6,3.56-9.4,6.67-14.41,9.31c-5.01,2.65-9.44,4.17-13.31,4.54c-3.87,0.38-6.88-0.49-9.05-2.61c-3.31-3.94-4.11-10.6-2.4-19.99
	c6.99,8.33,14.67,9.92,23.03,4.77c7.73-4.84,13.58-13.33,17.55-25.44c4.39-13.18,3.81-23.17-1.73-29.99l-1.89-1.82
	c-7.02-6.66-16.3-6.59-27.84,0.23c-11.07,6.51-19.64,16.21-25.71,29.08c-3.99,8.41-5.94,16.38-5.9,23.91
	c-1.65,1.52-3.38,2.88-5.23,4.03c-3.16,1.97-6.54,2.73-10.14,2.27c-3.61-0.45-6.87-2.35-9.8-5.68c8.14-25.9,11.54-41.04,10.18-45.44
	c-1.12-3.48-2.77-6.4-4.95-8.75c-2.18-2.35-4.43-3.9-6.73-4.66c-2.3-0.76-4.63-1.32-6.98-1.7c-2.36-0.38-4.34-0.34-5.96,0.11
	c1.66,6.06,1.78,13.52,0.35,22.38c-1.15,7.11-2.84,14.15-5.06,21.11c-2.84,4.47-7.87,10.38-15.12,17.73
	c-9.18,9.31-15.21,12.69-18.07,10.11c-3.04-2.57-2.5-10.71,1.59-24.42c4.09-13.71,8.01-23.06,11.74-28.06
	c1.22-5.3-0.11-9.31-3.98-12.04c-3.88-2.73-7.46-4.01-10.77-3.86c-1.83,1.97-4.3,5.68-7.42,11.13c-3.12,5.45-6.3,12.12-9.54,19.99
	c-3.03,7.35-5.52,14.59-7.48,21.74c-2.8,3.47-6.07,7.09-9.85,10.86c-7.81,7.8-13.02,9.05-15.61,3.75c-2-4.09-2.32-10.49-0.96-19.2
	c1.35-8.71,3.92-18.29,7.7-28.74c3.78-10.45,7.23-19.42,10.34-26.92c3.11-7.5,6.29-14.65,9.55-21.47c-0.08-5-2.35-8.82-6.79-11.47
	c-4.45-2.65-8.4-3.82-11.86-3.52c-2.33,3.94-5.25,9.81-8.75,17.61c-3.5,7.8-7.18,17.04-11.02,27.72
	c-3.85,10.68-6.95,21.28-9.32,31.81c-2.37,10.53-3.66,20.52-3.87,29.99c-0.21,9.47,1.56,16.85,5.31,22.15
	c6.4,9.24,14.21,11.43,23.43,6.59c7.15-3.72,13.68-10.27,19.59-19.66c0.12,1.26,0.27,2.52,0.49,3.76
	c1.23,6.82,4.37,11.74,9.43,14.77c5.7,2.73,11.32,3.03,16.87,0.91c5.55-2.12,10.79-5.94,15.72-11.47c3.21-3.59,6.1-7.28,8.7-11.07
	c-0.44,1.3-0.88,2.59-1.33,3.91c-3.26,9.69-6.01,18.55-8.25,26.58c-2.24,8.03-3.05,15.75-2.44,23.17c0.61,7.42,3.1,13.4,7.45,17.95
	c7.78,7.87,15.19,10.22,22.23,7.04c8.63-3.94,15.09-14.09,19.38-30.44c4.26-16.66,4.31-31.12,0.15-43.39
	c5.9,1.21,11.39,0.34,16.45-2.61c0.98-0.57,1.88-1.2,2.74-1.85c1.21,3.57,2.93,7.02,5.18,10.37c3.01,4.39,6.44,7.76,10.29,10.11
	c3.84,2.35,7.72,3.63,11.64,3.86c3.91,0.23,8.02-0.23,12.33-1.36c4.3-1.14,8.34-2.91,12.12-5.34c3.78-2.42,7.45-5.11,11.03-8.07
	c3.57-2.95,6.58-6.21,9.02-9.77c2.44-3.56,4.52-6.96,6.25-10.22c1.72-3.25,2.66-6.44,2.82-9.54
	C414.9,466.56,414.31,464.03,412.99,462.06z M384.19,432.52c2.12,3.63,1.9,8.94-0.68,15.9c-2.58,6.97-6.54,12.65-11.9,17.04
	c-5.36,4.4-10.4,5.15-15.11,2.27C361.39,452.74,370.62,441.01,384.19,432.52z M300.31,540.66c-3.5,7.87-6.42,10.68-8.76,8.41
	c-0.91-0.91-1.48-2.39-1.73-4.43c-0.25-2.04-0.14-4.7,0.34-7.95c0.48-3.26,1.08-6.51,1.81-9.77c0.73-3.26,1.8-7.31,3.23-12.15
	c1.42-4.84,2.69-9.09,3.8-12.72c1.11-3.64,2.52-8.18,4.22-13.63c1.25,1.06,2.57,2.04,3.98,2.95c0.75,3.03,1.12,6.59,1.13,10.68
	C308.43,515.37,305.76,528.24,300.31,540.66z"/>
</svg>
