<svg height="100.1" viewBox="0 0 101.77 100.1" width="101.77" xmlns="http://www.w3.org/2000/svg"><path d="m27.29 73.51c0 7.87 7.1 14.51 15.52 14.51h44.19a14.67 14.67 0 0 0 14.8-14.51c0-4.57-2.87-9.25-7.28-12.07-1.77-10.23-10.07-17.5-20.27-17.5a19.25 19.25 0 0 0 -12.68 4.71c-1-.11-2.06-.16-2.68-.16a15.49 15.49 0 0 0 -14.71 10.57c-.46 0-.92-.05-1.37-.05-8.42-.01-15.52 6.64-15.52 14.5z" fill="#ddd"/><path d="m85.21 14.05a12.92 12.92 0 0 1 12.15 19.46l2.44 2.07-9.27 2.29.77-9.52 2.34 2a8.16 8.16 0 0 0 -13.64-8.7l-3.63-3.11a12.81 12.81 0 0 1 8.84-4.49z" fill="#41bff7"/><path d="m42.48 41.52a29.64 29.64 0 0 1 -42.31-.16l-.17-.18a37.31 37.31 0 0 0 36.6 32.62 36.7 36.7 0 0 0 36.65-37.14 37.52 37.52 0 0 0 -29.69-36.66 30.58 30.58 0 0 1 -1.08 41.52z" fill="#f9a607" fill-rule="evenodd"/><path d="m64.07 49.79a36.73 36.73 0 0 1 -5.49 9.07 24.65 24.65 0 0 0 10.51-11.86 25.33 25.33 0 0 0 -11.09-32.07c8.91 6.98 11.74 21.47 6.07 34.86z" fill="#ffd74b" fill-rule="evenodd"/><g fill="#00bcd4"><path d="m60 76.38c-.05 0-4.41 4-4.88 5.7a3.19 3.19 0 0 0 6.15 1.7c.43-1.7-1.27-7.38-1.27-7.4z"/><path d="m71.46 90.37s-4.41 4-4.88 5.7a3.19 3.19 0 0 0 6.15 1.69c.47-1.7-1.22-7.38-1.27-7.39z"/><path d="m85.87 81.25c-.05 0-4.41 4-4.88 5.7a3.19 3.19 0 0 0 6.15 1.69c.47-1.64-1.22-7.37-1.27-7.39z"/></g></svg>