<svg height="94.51" viewBox="0 0 107.52 94.51" width="107.52" xmlns="http://www.w3.org/2000/svg"><path d="m47.84 46.76a33.39 33.39 0 0 1 -47.65-.18l-.19-.21c2.69 20.63 20.14 36.63 41.22 36.74 22.88.09 41.36-18.64 41.27-41.82a42.24 42.24 0 0 0 -33.43-41.29 34.44 34.44 0 0 1 -1.22 46.76z" fill="#f9a607" fill-rule="evenodd"/><path d="m72.15 56.08a40.93 40.93 0 0 1 -6.15 10.21 27.71 27.71 0 0 0 11.81-13.36 28.51 28.51 0 0 0 -12.53-36.11c10.08 7.85 13.26 24.18 6.87 39.26z" fill="#ffd74b" fill-rule="evenodd"/><g fill="#eee"><path d="m87.12 65.27c-.61 0-1.21 0-1.82-.06-8.24-.53-15.32-5-21.57-8.86l-1.07-.67c-8.51-5.3-21.6-7.08-30.23 1.54a3 3 0 0 1 -4.24-4.22c7.67-7.67 22.72-11.69 37.65-2.39l1.07.67c5.92 3.7 12 7.53 18.77 8a21.85 21.85 0 0 0 16.72-6 3 3 0 1 1 4.24 4.24 27.82 27.82 0 0 1 -19.52 7.75z" opacity=".6"/><path d="m87.12 79.89c-.61 0-1.21 0-1.82-.06-8.24-.53-15.3-4.96-21.57-8.83l-1.07-.67c-8.51-5.3-21.6-7.08-30.23 1.54a3 3 0 0 1 -4.24-4.24c7.67-7.67 22.72-11.69 37.65-2.39l1.07.67c5.92 3.7 12 7.53 18.77 8a21.89 21.89 0 0 0 16.72-6 3 3 0 1 1 4.24 4.24 27.82 27.82 0 0 1 -19.52 7.74z" opacity=".75"/><path d="m87.12 94.51c-.61 0-1.22 0-1.82-.06-8.24-.53-15.32-5-21.57-8.86l-1.07-.67c-8.51-5.3-21.6-7.08-30.23 1.54a3 3 0 1 1 -4.24-4.24c7.67-7.67 22.72-11.69 37.65-2.39l1.07.67c5.92 3.7 12 7.53 18.77 8a21.85 21.85 0 0 0 16.72-6 3 3 0 1 1 4.24 4.24 27.82 27.82 0 0 1 -19.52 7.77z" opacity=".9"/><circle cx="37.94" cy="55.25" opacity=".75" r="2"/><circle cx="50.95" cy="87.03" opacity=".75" r="2"/><circle cx="77.59" cy="71.03" opacity=".75" r="2"/><circle cx="100.17" cy="84.03" opacity=".75" r="2"/><circle cx="92.5" cy="49.18" opacity=".75" r="2"/></g></svg>