<svg height="102.38" viewBox="0 0 112.63 102.38" width="112.63" xmlns="http://www.w3.org/2000/svg"><path d="m96.91 58.6c-.47 0-.93 0-1.39 0a15.71 15.71 0 0 0 -14.89-10.66 25.79 25.79 0 0 0 -2.71.17 19.44 19.44 0 0 0 -12.84-4.78c-10.34 0-18.75 7.37-20.55 17.74-4.46 2.85-7.37 7.59-7.37 12.23a14.86 14.86 0 0 0 15 14.7h44.75c8.52 0 15.72-6.73 15.72-14.69s-7.2-14.71-15.72-14.71z" fill="#ddd"/><path d="m106.61 80.28a19.28 19.28 0 0 1 -3.27 4.83 13.79 13.79 0 0 0 6.27-6.31c3-6.41.07-13.82-6.64-17 5.34 3.66 7.03 11.36 3.64 18.48z" fill="#ccc" fill-rule="evenodd"/><path d="m57 42.76a30.53 30.53 0 0 1 -43.57-.16l-.18-.19c2.49 18.87 18.45 33.52 37.75 33.59a37.79 37.79 0 0 0 37.72-38.24 38.64 38.64 0 0 0 -30.58-37.76 31.48 31.48 0 0 1 -1.14 42.76z" fill="#f9a607" fill-rule="evenodd"/><path d="m79.26 51.28a37.62 37.62 0 0 1 -5.65 9.34 25.38 25.38 0 0 0 10.82-12.22 26.06 26.06 0 0 0 -11.43-33.02c9.19 7.18 12.1 22.11 6.26 35.9z" fill="#ffd74b" fill-rule="evenodd"/><g fill="#eee"><path d="m59.81 73.14c-.61 0-1.22 0-1.82-.06-8.25-.53-15.33-5-21.58-8.86l-1.06-.67c-8.51-5.3-21.6-7.08-30.23 1.55a3 3 0 0 1 -4.24-4.25c7.67-7.67 22.72-11.69 37.64-2.39l1.07.67c5.93 3.7 12 7.53 18.78 8a21.83 21.83 0 0 0 16.71-6 3 3 0 1 1 4.25 4.24 27.86 27.86 0 0 1 -19.52 7.77z" opacity=".6"/><path d="m59.81 87.76c-.61 0-1.22 0-1.82-.06-8.25-.53-15.33-5-21.58-8.86l-1.06-.67c-8.51-5.3-21.6-7.08-30.23 1.55a3 3 0 0 1 -4.24-4.25c7.67-7.67 22.72-11.69 37.64-2.39l1.07.67c5.93 3.7 12 7.53 18.78 8a21.85 21.85 0 0 0 16.71-6 3 3 0 1 1 4.25 4.24 27.86 27.86 0 0 1 -19.52 7.77z" opacity=".75"/><path d="m59.8 102.38c-.6 0-1.21 0-1.81-.06-8.24-.53-15.33-5-21.57-8.86l-1.07-.67c-8.51-5.3-21.6-7.08-30.23 1.55a3 3 0 0 1 -4.24-4.25c7.67-7.67 22.72-11.69 37.64-2.39l1.08.67c5.92 3.7 12 7.53 18.77 8a21.82 21.82 0 0 0 16.71-6 3 3 0 0 1 4.25 4.24 27.86 27.86 0 0 1 -19.53 7.77z" opacity=".9"/><circle cx="10.62" cy="63.12" opacity=".75" r="2"/><circle cx="23.64" cy="94.9" opacity=".75" r="2"/><circle cx="50.28" cy="78.9" opacity=".75" r="2"/><circle cx="72.86" cy="91.9" opacity=".75" r="2"/><circle cx="65.18" cy="57.06" opacity=".75" r="2"/></g></svg>