<svg height="96.81" viewBox="0 0 90.74 96.81" width="90.74" xmlns="http://www.w3.org/2000/svg"><path d="m53.75 39.11a27.92 27.92 0 0 1 -39.85-.11l-.16-.17a35.13 35.13 0 0 0 34.47 30.68 34.56 34.56 0 0 0 34.52-35 35.33 35.33 0 0 0 -27.96-34.51 28.81 28.81 0 0 1 -1.02 39.11z" fill="#f9a607" fill-rule="evenodd"/><path d="m74.09 46.9a34.41 34.41 0 0 1 -5.17 8.54 23.23 23.23 0 0 0 9.9-11.17 23.84 23.84 0 0 0 -10.49-30.2c8.43 6.57 11.1 20.22 5.76 32.83z" fill="#ffd74b" fill-rule="evenodd"/><path d="m71.83 34.31c-.56 0-1.12 0-1.67.07a18.87 18.87 0 0 0 -17.89-12.88 32.17 32.17 0 0 0 -3.27.2 23.42 23.42 0 0 0 -15.44-5.7c-12.42 0-22.56 8.81-24.69 21.28-5.37 3.43-8.87 9.13-8.87 14.72a17.87 17.87 0 0 0 18 17.65h53.8c10.25 0 18.91-8.09 18.91-17.67s-8.63-17.67-18.88-17.67z" fill="#ddd"/><path d="m83 59.64a23 23 0 0 1 -3.94 5.8 16.53 16.53 0 0 0 7.54-7.58c3.66-7.71.09-16.61-8-20.5 6.46 4.46 8.48 13.72 4.4 22.28z" fill="#ccc" fill-rule="evenodd"/><path d="m27 64.35c-.1 0-8.76 8-9.69 11.32a6.33 6.33 0 1 0 12.22 3.33c.93-3.34-2.43-14.62-2.53-14.65z" fill="#00bcd4"/><circle cx="19.25" cy="93.08" fill="#00bcd4" r="3.72"/><path d="m57.05 64.41h13.79l-5.61 9.22h5.8l-11.88 15.33 2.35-9.13h-11.11z" fill="#ffe41f"/></svg>