<svg height="69.03" viewBox="0 0 89.92 69.03" width="89.92" xmlns="http://www.w3.org/2000/svg"><path d="m53.27 38.76a27.67 27.67 0 0 1 -39.49-.15l-.17-.17a34.84 34.84 0 0 0 34.17 30.45 34.26 34.26 0 0 0 34.22-34.67 35 35 0 0 0 -27.72-34.22 28.55 28.55 0 0 1 -1.01 38.76z" fill="#f9a607" fill-rule="evenodd"/><path d="m73.42 46.48a34.19 34.19 0 0 1 -5.12 8.52 23 23 0 0 0 9.81-11.08 23.64 23.64 0 0 0 -10.39-29.98c8.36 6.51 10.99 20.06 5.7 32.54z" fill="#ffd74b" fill-rule="evenodd"/><path d="m71.19 34c-.56 0-1.11 0-1.66.07a18.7 18.7 0 0 0 -17.73-12.76 31.22 31.22 0 0 0 -3.24.19 23.22 23.22 0 0 0 -15.3-5.69c-12.26 0-22.33 8.78-24.47 21.19-5.32 3.34-8.79 9-8.79 14.52a17.72 17.72 0 0 0 17.87 17.48h53.32c10.15 0 18.73-8 18.73-17.51s-8.58-17.49-18.73-17.49z" fill="#ddd"/><path d="m82.27 59.11a23 23 0 0 1 -3.9 5.74 16.33 16.33 0 0 0 7.47-7.51c3.63-7.64.09-16.47-7.91-20.32 6.36 4.42 8.37 13.6 4.34 22.09z" fill="#ccc" fill-rule="evenodd"/></svg>